<!DOCTYPE svg PUBLIC "-//W3C//DTD SVG 20010904//EN" "http://www.w3.org/TR/2001/REC-SVG-20010904/DTD/svg10.dtd">
<svg version="1.0" xmlns="http://www.w3.org/2000/svg" width="300px" height="236px" viewBox="0 0 3000 2360" preserveAspectRatio="xMidYMid meet">
<g id="layer1" fill="#c0a34a" stroke="none">
 <path d="M1200 2317 c0 -2 15 -16 33 -33 l32 -29 -29 33 c-28 30 -36 37 -36 29z"/>
 <path d="M1462 2175 c0 -16 2 -22 5 -12 2 9 2 23 0 30 -3 6 -5 -1 -5 -18z"/>
 <path d="M1574 2185 c-3 -8 -4 -20 -2 -27 3 -7 7 -1 10 15 6 29 1 36 -8 12z"/>
 <path d="M1138 2153 c7 -3 16 -2 19 1 4 3 -2 6 -13 5 -11 0 -14 -3 -6 -6z"/>
 <path d="M765 2141 c22 -3 78 -3 125 0 79 5 76 6 -40 6 -69 0 -107 -2 -85 -6z"/>
 <path d="M1943 2143 c9 -2 23 -2 30 0 6 3 -1 5 -18 5 -16 0 -22 -2 -12 -5z"/>
 <path d="M918 2123 c7 -3 16 -2 19 1 4 3 -2 6 -13 5 -11 0 -14 -3 -6 -6z"/>
 <path d="M1194 2038 l-29 -33 33 29 c17 17 32 31 32 33 0 8 -8 1 -36 -29z"/>
 <path d="M1900 2026 c0 -2 8 -10 18 -17 15 -13 16 -12 3 4 -13 16 -21 21 -21 13z"/>
 <path d="M1990 1936 c0 -2 8 -10 18 -17 15 -13 16 -12 3 4 -13 16 -21 21 -21 13z"/>
 <path d="M802 1780 c0 -14 2 -19 5 -12 2 6 2 18 0 25 -3 6 -5 1 -5 -13z"/>
 <path d="M2232 1675 c0 -16 2 -22 5 -12 2 9 2 23 0 30 -3 6 -5 -1 -5 -18z"/>
 <path d="M801 1540 c0 -8 4 -22 9 -30 12 -18 12 -2 0 25 -6 13 -9 15 -9 5z"/>
 <path d="M2220 1478 c0 -7 5 -20 10 -28 8 -12 10 -11 10 7 0 12 -4 25 -10 28 -5 3 -10 0 -10 -7z"/>
 <path d="M674 1285 c0 -60 1 -84 3 -52 2 32 2 81 0 110 -2 29 -3 3 -3 -58z"/>
 <path d="M593 1325 c0 -33 2 -45 4 -27 2 18 2 45 0 60 -2 15 -4 0 -4 -33z"/>
 <path d="M2331 1354 c0 -11 3 -14 6 -6 3 7 2 16 -1 19 -3 4 -6 -2 -5 -13z"/>
 <path d="M2291 1324 c0 -11 3 -14 6 -6 3 7 2 16 -1 19 -3 4 -6 -2 -5 -13z"/>
 <path d="M2428 763 c7 -3 16 -2 19 1 4 3 -2 6 -13 5 -11 0 -14 -3 -6 -6z"/>
 <path d="M351 734 c0 -11 3 -14 6 -6 3 7 2 16 -1 19 -3 4 -6 -2 -5 -13z"/>
 <path d="M2611 694 c0 -11 3 -14 6 -6 3 7 2 16 -1 19 -3 4 -6 -2 -5 -13z"/>
 <path d="M660 671 c0 -5 9 -7 20 -4 11 3 20 7 20 9 0 2 -9 4 -20 4 -11 0 -20 -4 -20 -9z"/>
 <path d="M730 656 c0 -2 8 -10 18 -17 15 -13 16 -12 3 4 -13 16 -21 21 -21 13z"/>
 <path d="M810 657 c0 -2 6 -10 14 -16 11 -9 16 -9 22 1 4 7 4 10 -1 6 -4 -4 -14 -3 -22 3 -7 6 -13 9 -13 6z"/>
 <path d="M634 638 c-4 -7 -4 -10 1 -6 4 4 15 2 24 -5 14 -11 14 -10 2 6 -16 20 -18 21 -27 5z"/>
 <path d="M630 566 c0 -2 8 -10 18 -17 15 -13 16 -12 3 4 -13 16 -21 21 -21 13z"/>
 <path d="M2279 553 c-13 -16 -12 -17 4 -4 16 13 21 21 13 21 -2 0 -10 -8 -17 -17z"/>
 <path d="M745 510 c10 -11 20 -20 23 -20 3 0 -3 9 -13 20 -10 11 -20 20 -23 20 -3 0 3 -9 13 -20z"/>
 <path d="M2309 503 c-13 -16 -12 -17 4 -4 16 13 21 21 13 21 -2 0 -10 -8 -17 -17z"/>
 <path d="M660 489 c0 -11 4 -18 10 -14 5 3 7 12 3 20 -7 21 -13 19 -13 -6z"/>
 <path d="M788 493 c7 -3 16 -2 19 1 4 3 -2 6 -13 5 -11 0 -14 -3 -6 -6z"/>
 <path d="M2166 475 c-11 -8 -15 -15 -9 -15 6 0 16 7 23 15 16 19 11 19 -14 0z"/>
 <path d="M835 451 c-3 -5 -2 -12 3 -15 5 -3 9 1 9 9 0 17 -3 19 -12 6z"/>
 <path d="M895 450 c-3 -5 -1 -10 4 -10 6 0 11 5 11 10 0 6 -2 10 -4 10 -3 0 -8 -4 -11 -10z"/>
 <path d="M2086 451 c-3 -4 6 -6 19 -3 14 2 25 6 25 8 0 8 -39 4 -44 -5z"/>
 <path d="M2219 443 c-13 -16 -12 -17 4 -4 16 13 21 21 13 21 -2 0 -10 -8 -17 -17z"/>
 <path d="M2301 434 c0 -11 3 -14 6 -6 3 7 2 16 -1 19 -3 4 -6 -2 -5 -13z"/>
 <path d="M2339 433 c-13 -16 -12 -17 4 -4 16 13 21 21 13 21 -2 0 -10 -8 -17 -17z"/>
 <path d="M2018 423 c7 -3 16 -2 19 1 4 3 -2 6 -13 5 -11 0 -14 -3 -6 -6z"/>
 <path d="M2242 418 c-7 -7 -12 -17 -12 -22 0 -6 5 -3 11 7 6 9 15 14 21 11 7 -4 8 -2 4 4 -9 15 -9 15 -24 0z"/>
 <path d="M741 404 c0 -11 3 -14 6 -6 3 7 2 16 -1 19 -3 4 -6 -2 -5 -13z"/>
 <path d="M795 400 c10 -11 20 -20 23 -20 3 0 -3 9 -13 20 -10 11 -20 20 -23 20 -3 0 3 -9 13 -20z"/>
 <path d="M1490 396 c7 -7 13 -7 20 0 6 6 3 10 -10 10 -13 0 -16 -4 -10 -10z"/>
 <path d="M895 380 c3 -5 8 -10 11 -10 2 0 4 5 4 10 0 6 -5 10 -11 10 -5 0 -7 -4 -4 -10z"/>
 <path d="M1332 340 c0 -14 2 -19 5 -12 2 6 2 18 0 25 -3 6 -5 1 -5 -13z"/>
 <path d="M1661 344 c0 -11 3 -14 6 -6 3 7 2 16 -1 19 -3 4 -6 -2 -5 -13z"/>
 <path d="M2156 352 c-3 -5 1 -9 9 -9 8 0 12 4 9 9 -3 4 -7 8 -9 8 -2 0 -6 -4 -9 -8z"/>
 <path d="M856 331 c-3 -5 2 -15 12 -22 15 -12 16 -12 5 2 -7 9 -10 19 -6 22 3 4 4 7 0 7 -3 0 -8 -4 -11 -9z"/>
 <path d="M1365 330 c-3 -6 1 -7 9 -4 18 7 21 14 7 14 -6 0 -13 -4 -16 -10z"/>
 <path d="M1426 332 c-3 -5 1 -9 9 -9 8 0 12 4 9 9 -3 4 -7 8 -9 8 -2 0 -6 -4 -9 -8z"/>
 <path d="M1556 332 c-3 -5 1 -9 9 -9 8 0 12 4 9 9 -3 4 -7 8 -9 8 -2 0 -6 -4 -9 -8z"/>
 <path d="M1610 336 c0 -2 7 -7 16 -10 8 -3 12 -2 9 4 -6 10 -25 14 -25 6z"/>
 <path d="M1003 245 c0 -8 4 -12 9 -9 5 3 6 10 3 15 -9 13 -12 11 -12 -6z"/>
 <path d="M1965 241 c-3 -5 -1 -12 5 -16 5 -3 10 1 10 9 0 18 -6 21 -15 7z"/>
 <path d="M1898 233 c7 -3 16 -2 19 1 4 3 -2 6 -13 5 -11 0 -14 -3 -6 -6z"/>
 <path d="M2041 224 c0 -11 3 -14 6 -6 3 7 2 16 -1 19 -3 4 -6 -2 -5 -13z"/>
 <path d="M1045 220 c-3 -5 -1 -10 4 -10 6 0 11 5 11 10 0 6 -2 10 -4 10 -3 0 -8 -4 -11 -10z"/>
 <path d="M1420 185 c0 -2 6 -8 13 -14 10 -8 14 -7 14 2 0 8 -6 14 -14 14 -7 0 -13 -1 -13 -2z"/>
 <path d="M1553 173 c0 -9 4 -10 14 -2 7 6 13 12 13 14 0 1 -6 2 -13 2 -8 0 -14 -6 -14 -14z"/>
 <path d="M1367 139 c7 -7 15 -10 18 -7 3 3 -2 9 -12 12 -14 6 -15 5 -6 -5z"/>
 <path d="M1620 140 c-9 -6 -10 -10 -3 -10 6 0 15 5 18 10 8 12 4 12 -15 0z"/>
 <path d="M1420 56 c0 -2 8 -10 18 -17 15 -13 16 -12 3 4 -13 16 -21 21 -21 13z"/>
 </g>
<g id="layer2" fill="#a2a2a9" stroke="none">
 <path d="M1338 1943 c7 -3 16 -2 19 1 4 3 -2 6 -13 5 -11 0 -14 -3 -6 -6z"/>
 <path d="M1708 1923 c7 -3 16 -2 19 1 4 3 -2 6 -13 5 -11 0 -14 -3 -6 -6z"/>
 <path d="M2020 1785 c-10 -12 -16 -13 -26 -4 -8 6 -14 9 -14 6 0 -2 6 -10 13 -16 11 -8 18 -6 32 9 10 11 16 20 13 20 -3 0 -11 -7 -18 -15z"/>
 <path d="M1793 1783 c9 -2 25 -2 35 0 9 3 1 5 -18 5 -19 0 -27 -2 -17 -5z"/>
 <path d="M1320 1745 c13 -14 26 -25 28 -25 3 0 -5 11 -18 25 -13 14 -26 25 -28 25 -3 0 5 -11 18 -25z"/>
 <path d="M972 1735 c0 -16 2 -22 5 -12 2 9 2 23 0 30 -3 6 -5 -1 -5 -18z"/>
 <path d="M1953 1735 c0 -8 4 -12 9 -9 5 3 6 10 3 15 -9 13 -12 11 -12 -6z"/>
 <path d="M2068 1680 c-3 -16 -1 -30 4 -30 4 0 8 14 8 30 0 17 -2 30 -4 30 -2 0 -6 -13 -8 -30z"/>
 <path d="M1438 1583 c7 -3 16 -2 19 1 4 3 -2 6 -13 5 -11 0 -14 -3 -6 -6z"/>
 <path d="M1010 1557 c0 -2 15 -16 33 -33 l32 -29 -29 33 c-28 30 -36 37 -36 29z"/>
 <path d="M1889 1543 c-13 -16 -12 -17 4 -4 9 7 17 15 17 17 0 8 -8 3 -21 -13z"/>
 <path d="M1889 1483 c-13 -16 -12 -17 4 -4 9 7 17 15 17 17 0 8 -8 3 -21 -13z"/>
 <path d="M1783 1474 c9 -11 15 -23 12 -26 -3 -3 1 -11 9 -17 30 -25 24 7 -7 35 -17 16 -24 20 -14 8z"/>
 <path d="M1490 1460 c0 -5 5 -10 10 -10 6 0 10 5 10 10 0 6 -4 10 -10 10 -5 0 -10 -4 -10 -10z"/>
 <path d="M1391 1443 c0 -5 17 -21 37 -37 l37 -30 -34 37 c-36 38 -42 42 -40 30z"/>
 <path d="M1566 1410 c-49 -54 -46 -61 4 -9 22 23 38 44 36 46 -2 2 -20 -15 -40 -37z"/>
 <path d="M1999 1423 c-13 -16 -12 -17 4 -4 9 7 17 15 17 17 0 8 -8 3 -21 -13z"/>
 <path d="M1483 1383 c9 -2 25 -2 35 0 9 3 1 5 -18 5 -19 0 -27 -2 -17 -5z"/>
 <path d="M1350 1326 c25 -24 47 -42 49 -40 3 3 -12 18 -32 35 -21 17 -35 35 -32 40 4 5 -2 9 -12 9 -13 0 -6 -12 27 -44z"/>
 <path d="M1406 1353 c-6 -14 -5 -15 5 -6 7 7 10 15 7 18 -3 3 -9 -2 -12 -12z"/>
 <path d="M1580 1361 c0 -6 4 -13 10 -16 6 -3 7 1 4 9 -7 18 -14 21 -14 7z"/>
 <path d="M1665 1361 c3 -5 -11 -23 -32 -40 -20 -17 -35 -32 -32 -35 2 -2 24 16 49 40 33 32 40 44 27 44 -10 0 -16 -4 -12 -9z"/>
 <path d="M1368 1260 c2 -16 6 -30 8 -30 2 0 4 14 4 30 0 17 -4 30 -8 30 -5 0 -7 -13 -4 -30z"/>
 <path d="M1622 1270 c0 -14 2 -19 5 -12 2 6 2 18 0 25 -3 6 -5 1 -5 -13z"/>
 <path d="M1018 1273 c12 -2 30 -2 40 0 9 3 -1 5 -23 4 -22 0 -30 -2 -17 -4z"/>
 <path d="M1290 1260 c0 -5 5 -10 11 -10 5 0 7 5 4 10 -3 6 -8 10 -11 10 -2 0 -4 -4 -4 -10z"/>
 <path d="M1695 1260 c-3 -5 -1 -10 4 -10 6 0 11 5 11 10 0 6 -2 10 -4 10 -3 0 -8 -4 -11 -10z"/>
 <path d="M1096 1248 c3 -5 10 -6 15 -3 13 9 11 12 -6 12 -8 0 -12 -4 -9 -9z"/>
 <path d="M1876 1248 c3 -5 10 -6 15 -3 13 9 11 12 -6 12 -8 0 -12 -4 -9 -9z"/>
 <path d="M1350 1194 c-25 -24 -42 -44 -39 -44 8 0 92 81 88 85 -2 1 -24 -17 -49 -41z"/>
 <path d="M1835 1231 c3 -5 -1 -11 -7 -14 -10 -3 -10 -8 1 -18 8 -8 11 -9 7 -2 -3 6 1 16 10 21 15 8 15 10 0 15 -10 4 -15 3 -11 -2z"/>
 <path d="M1117 1210 c-9 -12 -9 -13 2 -3 7 6 19 9 26 7 7 -3 15 -2 18 3 10 16 -34 9 -46 -7z"/>
 <path d="M2086 1221 c-4 -5 -2 -12 3 -15 5 -4 12 -2 15 3 4 5 2 12 -3 15 -5 4 -12 2 -15 -3z"/>
 <path d="M828 1213 c6 -2 18 -2 25 0 6 3 1 5 -13 5 -14 0 -19 -2 -12 -5z"/>
 <path d="M1647 1185 c19 -19 38 -35 41 -35 3 0 -9 16 -28 35 -19 19 -37 35 -41 35 -4 0 9 -16 28 -35z"/>
 <path d="M1873 1210 c-13 -5 -23 -11 -23 -14 0 -7 40 6 46 15 6 10 6 10 -23 -1z"/>
 <path d="M906 1201 c-4 -5 -2 -12 3 -15 5 -4 12 -2 15 3 4 5 2 12 -3 15 -5 4 -12 2 -15 -3z"/>
 <path d="M1166 1193 c-6 -14 -5 -15 5 -6 7 7 10 15 7 18 -3 3 -9 -2 -12 -12z"/>
 <path d="M1396 1202 c-3 -5 1 -9 9 -9 8 0 12 4 9 9 -3 4 -7 8 -9 8 -2 0 -6 -4 -9 -8z"/>
 <path d="M2190 1201 c0 -6 4 -13 10 -16 6 -3 7 1 4 9 -7 18 -14 21 -14 7z"/>
 <path d="M803 1181 c0 -11 5 -18 9 -15 4 3 5 11 1 19 -7 21 -12 19 -10 -4z"/>
 <path d="M1045 1189 c-4 -6 -4 -13 -1 -16 3 -4 6 -1 6 6 0 7 5 9 12 5 7 -4 8 -3 4 4 -9 15 -13 15 -21 1z"/>
 <path d="M2248 1193 c7 -3 16 -2 19 1 4 3 -2 6 -13 5 -11 0 -14 -3 -6 -6z"/>
 <path d="M2039 1188 c0 -2 -2 -11 -4 -21 -3 -15 -1 -16 11 -6 7 6 11 15 8 20 -5 9 -13 12 -15 7z"/>
 <path d="M2163 1165 c0 -8 4 -12 9 -9 5 3 6 10 3 15 -9 13 -12 11 -12 -6z"/>
 <path d="M965 1150 c6 -29 11 -34 18 -16 3 8 0 20 -8 26 -12 10 -13 8 -10 -10z"/>
 <path d="M1016 1161 c-4 -5 -2 -12 3 -15 5 -4 12 -2 15 3 4 5 2 12 -3 15 -5 4 -12 2 -15 -3z"/>
 <path d="M1909 1153 c-13 -16 -12 -17 4 -4 16 13 21 21 13 21 -2 0 -10 -8 -17 -17z"/>
 <path d="M843 1145 c0 -8 4 -12 9 -9 5 3 6 10 3 15 -9 13 -12 11 -12 -6z"/>
 <path d="M1985 1149 c-4 -6 -5 -12 -2 -15 2 -3 7 2 10 11 7 17 1 20 -8 4z"/>
 <path d="M2353 1153 c9 -2 25 -2 35 0 9 3 1 5 -18 5 -19 0 -27 -2 -17 -5z"/>
 <path d="M1432 1119 c-13 -16 -28 -27 -33 -23 -5 3 -9 0 -9 -5 0 -6 4 -11 8 -11 11 0 67 59 61 64 -2 2 -14 -10 -27 -25z"/>
 <path d="M1540 1141 c0 -9 59 -66 63 -60 1 2 -12 18 -30 36 -18 17 -33 28 -33 24z"/>
 <path d="M2115 1141 c-3 -5 -2 -12 3 -15 5 -3 9 1 9 9 0 17 -3 19 -12 6z"/>
 <path d="M875 1121 c-3 -5 -2 -12 3 -15 5 -3 9 1 9 9 0 17 -3 19 -12 6z"/>
 <path d="M1947 1112 c-15 -16 -15 -19 -2 -19 8 0 13 3 10 5 -3 3 0 11 6 19 17 20 5 16 -14 -5z"/>
 <path d="M939 1115 c-1 -3 -2 -8 -3 -12 -1 -5 -5 -15 -10 -23 -7 -12 -6 -13 4 -3 13 12 23 43 14 43 -2 0 -5 -2 -5 -5z"/>
 <path d="M2223 1105 c0 -8 4 -12 9 -9 5 3 6 10 3 15 -9 13 -12 11 -12 -6z"/>
 <path d="M1103 1055 c0 -8 4 -12 9 -9 5 3 6 10 3 15 -9 13 -12 11 -12 -6z"/>
 <path d="M1490 1060 c0 -5 5 -10 10 -10 6 0 10 5 10 10 0 6 -4 10 -10 10 -5 0 -10 -4 -10 -10z"/>
 <path d="M1755 1061 c-3 -5 -2 -12 3 -15 5 -3 9 1 9 9 0 17 -3 19 -12 6z"/>
 <path d="M2143 1063 c4 -3 1 -13 -6 -22 -11 -14 -10 -14 5 -2 16 12 16 31 1 31 -4 0 -3 -3 0 -7z"/>
 <path d="M1063 1055 c4 -5 0 -17 -10 -27 -9 -10 -13 -18 -8 -18 4 0 2 -7 -5 -15 -7 -8 -16 -13 -20 -10 -4 3 -14 -3 -21 -13 -13 -15 -12 -16 4 -3 9 7 17 10 17 5 0 -4 11 3 25 16 14 13 23 26 20 28 -3 3 0 11 6 18 7 9 6 14 -3 20 -7 4 -10 3 -5 -1z"/>
 <path d="M851 1036 c-9 -11 -9 -16 1 -22 7 -4 10 -4 6 1 -4 4 -3 14 3 22 6 7 9 13 6 13 -2 0 -10 -6 -16 -14z"/>
 <path d="M1935 1020 c10 -11 20 -20 23 -20 3 0 -3 9 -13 20 -10 11 -20 20 -23 20 -3 0 3 -9 13 -20z"/>
 <path d="M2510 1030 c8 -5 20 -10 25 -10 6 0 3 5 -5 10 -8 5 -19 10 -25 10 -5 0 -3 -5 5 -10z"/>
 <path d="M460 1020 c-8 -5 -10 -10 -5 -10 6 0 17 5 25 10 8 5 11 10 5 10 -5 0 -17 -5 -25 -10z"/>
 <path d="M2460 1020 c8 -5 20 -10 25 -10 6 0 3 5 -5 10 -8 5 -19 10 -25 10 -5 0 -3 -5 5 -10z"/>
 <path d="M244 998 l-19 -23 23 19 c12 11 22 21 22 23 0 8 -8 2 -26 -19z"/>
 <path d="M2370 1006 c0 -2 7 -7 16 -10 8 -3 12 -2 9 4 -6 10 -25 14 -25 6z"/>
 <path d="M635 980 c-3 -6 1 -7 9 -4 18 7 21 14 7 14 -6 0 -13 -4 -16 -10z"/>
 <path d="M1970 987 c0 -2 6 -10 14 -16 11 -9 16 -9 22 1 4 7 4 10 -1 6 -4 -4 -14 -3 -22 3 -7 6 -13 9 -13 6z"/>
 <path d="M675 970 c-3 -6 1 -7 9 -4 18 7 21 14 7 14 -6 0 -13 -4 -16 -10z"/>
 <path d="M1254 948 l-29 -33 33 29 c30 28 37 36 29 36 -2 0 -16 -15 -33 -32z"/>
 <path d="M1689 954 c16 -14 31 -24 33 -23 2 1 14 -3 28 -10 19 -9 17 -5 -10 18 -19 16 -38 27 -42 25 -3 -2 -9 0 -13 6 -3 5 -11 10 -16 10 -6 0 3 -11 20 -26z m32 -11 c13 -16 12 -17 -3 -4 -17 13 -22 21 -14 21 2 0 10 -8 17 -17z"/>
 <path d="M2128 973 c7 -3 16 -2 19 1 4 3 -2 6 -13 5 -11 0 -14 -3 -6 -6z"/>
 <path d="M2225 971 c-3 -5 -2 -12 3 -15 5 -3 9 1 9 9 0 17 -3 19 -12 6z"/>
 <path d="M220 959 c0 -5 11 -9 25 -9 14 0 25 2 25 4 0 2 -11 6 -25 8 -14 3 -25 1 -25 -3z"/>
 <path d="M823 963 c9 -2 25 -2 35 0 9 3 1 5 -18 5 -19 0 -27 -2 -17 -5z"/>
 <path d="M2713 963 c9 -2 23 -2 30 0 6 3 -1 5 -18 5 -16 0 -22 -2 -12 -5z"/>
 <path d="M2588 953 c6 -2 18 -2 25 0 6 3 1 5 -13 5 -14 0 -19 -2 -12 -5z"/>
 <path d="M368 943 c7 -3 16 -2 19 1 4 3 -2 6 -13 5 -11 0 -14 -3 -6 -6z"/>
 <path d="M2488 943 c7 -3 16 -2 19 1 4 3 -2 6 -13 5 -11 0 -14 -3 -6 -6z"/>
 <path d="M2648 943 c7 -3 16 -2 19 1 4 3 -2 6 -13 5 -11 0 -14 -3 -6 -6z"/>
 <path d="M308 933 c6 -2 18 -2 25 0 6 3 1 5 -13 5 -14 0 -19 -2 -12 -5z"/>
 <path d="M468 933 c7 -3 16 -2 19 1 4 3 -2 6 -13 5 -11 0 -14 -3 -6 -6z"/>
 <path d="M1448 933 c6 -2 18 -2 25 0 6 3 1 5 -13 5 -14 0 -19 -2 -12 -5z"/>
 <path d="M1685 911 c38 -42 61 -55 71 -39 4 7 3 8 -4 4 -6 -4 -30 10 -54 31 -40 35 -41 35 -13 4z"/>
 <path d="M2388 933 c7 -3 16 -2 19 1 4 3 -2 6 -13 5 -11 0 -14 -3 -6 -6z"/>
 <path d="M2538 933 c7 -3 16 -2 19 1 4 3 -2 6 -13 5 -11 0 -14 -3 -6 -6z"/>
 <path d="M418 923 c7 -3 16 -2 19 1 4 3 -2 6 -13 5 -11 0 -14 -3 -6 -6z"/>
 <path d="M568 923 c7 -3 16 -2 19 1 4 3 -2 6 -13 5 -11 0 -14 -3 -6 -6z"/>
 <path d="M1259 893 l-34 -38 38 34 c20 19 37 36 37 38 0 8 -8 0 -41 -34z"/>
 <path d="M2288 923 c6 -2 18 -2 25 0 6 3 1 5 -13 5 -14 0 -19 -2 -12 -5z"/>
 <path d="M2438 923 c7 -3 16 -2 19 1 4 3 -2 6 -13 5 -11 0 -14 -3 -6 -6z"/>
 <path d="M124 898 l-19 -23 23 19 c12 11 22 21 22 23 0 8 -8 2 -26 -19z"/>
 <path d="M508 913 c6 -2 18 -2 25 0 6 3 1 5 -13 5 -14 0 -19 -2 -12 -5z"/>
 <path d="M658 913 c7 -3 16 -2 19 1 4 3 -2 6 -13 5 -11 0 -14 -3 -6 -6z"/>
 <path d="M2348 913 c7 -3 16 -2 19 1 4 3 -2 6 -13 5 -11 0 -14 -3 -6 -6z"/>
 <path d="M618 903 c7 -3 16 -2 19 1 4 3 -2 6 -13 5 -11 0 -14 -3 -6 -6z"/>
 <path d="M707 883 c3 -7 6 -13 8 -13 2 0 5 6 8 13 3 8 -1 14 -8 14 -7 0 -11 -6 -8 -14z"/>
 <path d="M2148 893 c6 -2 18 -2 25 0 6 3 1 5 -13 5 -14 0 -19 -2 -12 -5z"/>
 <path d="M858 883 c7 -3 16 -2 19 1 4 3 -2 6 -13 5 -11 0 -14 -3 -6 -6z"/>
 <path d="M2310 876 c0 -2 8 -10 18 -17 15 -13 16 -12 3 4 -13 16 -21 21 -21 13z"/>
 <path d="M2778 873 c6 -2 18 -2 25 0 6 3 1 5 -13 5 -14 0 -19 -2 -12 -5z"/>
 <path d="M163 863 c9 -2 23 -2 30 0 6 3 -1 5 -18 5 -16 0 -22 -2 -12 -5z"/>
 <path d="M1652 840 c0 -19 2 -27 5 -17 2 9 2 25 0 35 -3 9 -5 1 -5 -18z"/>
 <path d="M2638 863 c6 -2 18 -2 25 0 6 3 1 5 -13 5 -14 0 -19 -2 -12 -5z"/>
 <path d="M2858 863 c12 -2 30 -2 40 0 9 3 -1 5 -23 4 -22 0 -30 -2 -17 -4z"/>
 <path d="M303 853 c9 -2 23 -2 30 0 6 3 -1 5 -18 5 -16 0 -22 -2 -12 -5z"/>
 <path d="M1766 851 c-4 -5 -2 -12 3 -15 5 -4 12 -2 15 3 4 5 2 12 -3 15 -5 4 -12 2 -15 -3z"/>
 <path d="M2528 853 c7 -3 16 -2 19 1 4 3 -2 6 -13 5 -11 0 -14 -3 -6 -6z"/>
 <path d="M2708 853 c6 -2 18 -2 25 0 6 3 1 5 -13 5 -14 0 -19 -2 -12 -5z"/>
 <path d="M233 843 c9 -2 23 -2 30 0 6 3 -1 5 -18 5 -16 0 -22 -2 -12 -5z"/>
 <path d="M428 843 c6 -2 18 -2 25 0 6 3 1 5 -13 5 -14 0 -19 -2 -12 -5z"/>
 <path d="M2418 843 c7 -3 16 -2 19 1 4 3 -2 6 -13 5 -11 0 -14 -3 -6 -6z"/>
 <path d="M2578 843 c6 -2 18 -2 25 0 6 3 1 5 -13 5 -14 0 -19 -2 -12 -5z"/>
 <path d="M368 833 c6 -2 18 -2 25 0 6 3 1 5 -13 5 -14 0 -19 -2 -12 -5z"/>
 <path d="M548 833 c7 -3 16 -2 19 1 4 3 -2 6 -13 5 -11 0 -14 -3 -6 -6z"/>
 <path d="M1109 813 l-24 -28 28 24 c25 23 32 31 24 31 -2 0 -14 -12 -28 -27z"/>
 <path d="M2468 833 c6 -2 18 -2 25 0 6 3 1 5 -13 5 -14 0 -19 -2 -12 -5z"/>
 <path d="M488 823 c6 -2 18 -2 25 0 6 3 1 5 -13 5 -14 0 -19 -2 -12 -5z"/>
 <path d="M1835 800 c15 -16 32 -27 37 -24 5 3 19 -2 31 -12 12 -10 6 -1 -13 19 -20 21 -46 39 -59 42 -24 4 -24 4 4 -25z m20 0 c10 -11 16 -20 13 -20 -3 0 -13 9 -23 20 -10 11 -16 20 -13 20 3 0 13 -9 23 -20z"/>
 <path d="M2368 823 c7 -3 16 -2 19 1 4 3 -2 6 -13 5 -11 0 -14 -3 -6 -6z"/>
 <path d="M588 813 c7 -3 16 -2 19 1 4 3 -2 6 -13 5 -11 0 -14 -3 -6 -6z"/>
 <path d="M1109 753 l-34 -38 38 34 c34 33 42 41 34 41 -2 0 -19 -17 -38 -37z"/>
 <path d="M2048 773 c18 -2 45 -2 60 0 15 2 0 4 -33 4 -33 0 -45 -2 -27 -4z"/>
 <path d="M2733 773 c26 -2 67 -2 90 0 23 2 2 3 -48 3 -49 0 -68 -1 -42 -3z"/>
 <path d="M313 763 c26 -2 67 -2 90 0 23 2 2 3 -48 3 -49 0 -68 -1 -42 -3z"/>
 <path d="M673 753 c9 -2 23 -2 30 0 6 3 -1 5 -18 5 -16 0 -22 -2 -12 -5z"/>
 <path d="M1061 724 c0 -11 3 -14 6 -6 3 7 2 16 -1 19 -3 4 -6 -2 -5 -13z"/>
 <path d="M1846 718 c3 -5 10 -6 15 -3 13 9 11 12 -6 12 -8 0 -12 -4 -9 -9z"/>
 <path d="M1412 620 c0 -14 2 -19 5 -12 2 6 2 18 0 25 -3 6 -5 1 -5 -13z"/>
 </g>
<g id="layer3" fill="#8d7736" stroke="none">
 <path d="M1796 2283 c-6 -14 -5 -15 5 -6 7 7 10 15 7 18 -3 3 -9 -2 -12 -12z"/>
 <path d="M1401 2154 c0 -11 3 -14 6 -6 3 7 2 16 -1 19 -3 4 -6 -2 -5 -13z"/>
 <path d="M1108 2153 c7 -3 16 -2 19 1 4 3 -2 6 -13 5 -11 0 -14 -3 -6 -6z"/>
 <path d="M1818 2153 c7 -3 16 -2 19 1 4 3 -2 6 -13 5 -11 0 -14 -3 -6 -6z"/>
 <path d="M1600 2140 c0 -5 5 -10 11 -10 5 0 7 5 4 10 -3 6 -8 10 -11 10 -2 0 -4 -4 -4 -10z"/>
 <path d="M2065 2141 c50 -4 104 -3 120 0 17 4 -24 7 -90 6 l-120 0 90 -6z"/>
 <path d="M888 2123 c7 -3 16 -2 19 1 4 3 -2 6 -13 5 -11 0 -14 -3 -6 -6z"/>
 <path d="M2048 2123 c6 -2 18 -2 25 0 6 3 1 5 -13 5 -14 0 -19 -2 -12 -5z"/>
 <path d="M1823 2113 c15 -2 39 -2 55 0 15 2 2 4 -28 4 -30 0 -43 -2 -27 -4z"/>
 <path d="M1083 2103 c9 -2 23 -2 30 0 6 3 -1 5 -18 5 -16 0 -22 -2 -12 -5z"/>
 <path d="M1029 2073 c-13 -16 -12 -17 4 -4 9 7 17 15 17 17 0 8 -8 3 -21 -13z"/>
 <path d="M1770 2076 c0 -2 8 -10 18 -17 15 -13 16 -12 3 4 -13 16 -21 21 -21 13z"/>
 <path d="M2035 1990 c10 -11 20 -20 23 -20 3 0 -3 9 -13 20 -10 11 -20 20 -23 20 -3 0 3 -9 13 -20z"/>
 <path d="M1100 1959 c0 -5 5 -7 10 -4 6 3 10 8 10 11 0 2 -4 4 -10 4 -5 0 -10 -5 -10 -11z"/>
 <path d="M2090 1936 c0 -2 8 -10 18 -17 15 -13 16 -12 3 4 -13 16 -21 21 -21 13z"/>
 <path d="M1940 1836 c0 -2 8 -10 18 -17 15 -13 16 -12 3 4 -13 16 -21 21 -21 13z"/>
 <path d="M2149 1793 c-13 -16 -12 -17 4 -4 9 7 17 15 17 17 0 8 -8 3 -21 -13z"/>
 <path d="M676 1731 c-4 -5 -2 -12 3 -15 5 -4 12 -2 15 3 4 5 2 12 -3 15 -5 4 -12 2 -15 -3z"/>
 <path d="M2231 1714 c0 -11 3 -14 6 -6 3 7 2 16 -1 19 -3 4 -6 -2 -5 -13z"/>
 <path d="M559 1703 c-13 -16 -12 -17 4 -4 9 7 17 15 17 17 0 8 -8 3 -21 -13z"/>
 <path d="M2635 1630 c-3 -5 -1 -10 4 -10 6 0 11 5 11 10 0 6 -2 10 -4 10 -3 0 -8 -4 -11 -10z"/>
 <path d="M1929 1583 c-13 -16 -12 -17 4 -4 9 7 17 15 17 17 0 8 -8 3 -21 -13z"/>
 <path d="M682 1520 c0 -14 2 -19 5 -12 2 6 2 18 0 25 -3 6 -5 1 -5 -13z"/>
 <path d="M800 1515 c0 -5 5 -17 10 -25 5 -8 10 -10 10 -5 0 6 -5 17 -10 25 -5 8 -10 11 -10 5z"/>
 <path d="M1070 1496 c0 -2 8 -10 18 -17 15 -13 16 -12 3 4 -13 16 -21 21 -21 13z"/>
 <path d="M2220 1450 c0 -8 5 -22 10 -30 9 -13 10 -13 10 0 0 8 -5 22 -10 30 -9 13 -10 13 -10 0z"/>
 <path d="M2281 1394 c0 -11 3 -14 6 -6 3 7 2 16 -1 19 -3 4 -6 -2 -5 -13z"/>
 <path d="M2331 1384 c0 -11 3 -14 6 -6 3 7 2 16 -1 19 -3 4 -6 -2 -5 -13z"/>
 <path d="M1838 1313 c6 -2 18 -2 25 0 6 3 1 5 -13 5 -14 0 -19 -2 -12 -5z"/>
 <path d="M2292 1290 c0 -14 2 -19 5 -12 2 6 2 18 0 25 -3 6 -5 1 -5 -13z"/>
 <path d="M592 1250 c0 -14 2 -19 5 -12 2 6 2 18 0 25 -3 6 -5 1 -5 -13z"/>
 <path d="M2342 1210 c0 -19 2 -27 5 -17 2 9 2 25 0 35 -3 9 -5 1 -5 -18z"/>
 <path d="M1070 1176 c0 -2 8 -10 18 -17 15 -13 16 -12 3 4 -13 16 -21 21 -21 13z"/>
 <path d="M610 1148 c0 -4 9 -8 20 -8 11 0 20 4 20 8 0 4 -9 8 -20 8 -11 0 -20 -4 -20 -8z"/>
 <path d="M2090 1050 c-12 -8 -11 -10 8 -10 12 0 22 5 22 10 0 13 -11 13 -30 0z"/>
 <path d="M797 985 c-4 -8 -3 -16 1 -19 4 -3 9 4 9 15 2 23 -3 25 -10 4z"/>
 <path d="M1686 978 c3 -5 10 -6 15 -3 13 9 11 12 -6 12 -8 0 -12 -4 -9 -9z"/>
 <path d="M2750 960 c0 -5 5 -10 10 -10 6 0 10 5 10 10 0 6 -4 10 -10 10 -5 0 -10 -4 -10 -10z"/>
 <path d="M965 951 c-3 -5 -2 -12 3 -15 5 -3 9 1 9 9 0 17 -3 19 -12 6z"/>
 <path d="M2620 950 c0 -5 5 -10 10 -10 6 0 10 5 10 10 0 6 -4 10 -10 10 -5 0 -10 -4 -10 -10z"/>
 <path d="M340 939 c0 -5 5 -7 10 -4 6 3 10 8 10 11 0 2 -4 4 -10 4 -5 0 -10 -5 -10 -11z"/>
 <path d="M2510 940 c0 -5 5 -10 10 -10 6 0 10 5 10 10 0 6 -4 10 -10 10 -5 0 -10 -4 -10 -10z"/>
 <path d="M440 930 c0 -5 5 -10 10 -10 6 0 10 5 10 10 0 6 -4 10 -10 10 -5 0 -10 -4 -10 -10z"/>
 <path d="M2415 930 c3 -5 8 -10 11 -10 2 0 4 5 4 10 0 6 -5 10 -11 10 -5 0 -7 -4 -4 -10z"/>
 <path d="M540 919 c0 -5 5 -7 10 -4 6 3 10 8 10 11 0 2 -4 4 -10 4 -5 0 -10 -5 -10 -11z"/>
 <path d="M2320 920 c0 -5 5 -10 11 -10 5 0 7 5 4 10 -3 6 -8 10 -11 10 -2 0 -4 -4 -4 -10z"/>
 <path d="M635 910 c3 -5 8 -10 11 -10 2 0 4 5 4 10 0 6 -5 10 -11 10 -5 0 -7 -4 -4 -10z"/>
 <path d="M1348 873 c18 -2 45 -2 60 0 15 2 0 4 -33 4 -33 0 -45 -2 -27 -4z"/>
 <path d="M1568 873 c18 -2 45 -2 60 0 15 2 0 4 -33 4 -33 0 -45 -2 -27 -4z"/>
 <path d="M2810 870 c0 -5 7 -10 15 -10 8 0 15 5 15 10 0 6 -7 10 -15 10 -8 0 -15 -4 -15 -10z"/>
 <path d="M120 860 c0 -5 7 -10 15 -10 8 0 15 5 15 10 0 6 -7 10 -15 10 -8 0 -15 -4 -15 -10z"/>
 <path d="M2670 860 c0 -5 7 -10 16 -10 8 0 12 5 9 10 -3 6 -10 10 -16 10 -5 0 -9 -4 -9 -10z"/>
 <path d="M270 850 c0 -5 5 -10 10 -10 6 0 10 5 10 10 0 6 -4 10 -10 10 -5 0 -10 -4 -10 -10z"/>
 <path d="M1730 851 c0 -6 4 -13 10 -16 6 -3 7 1 4 9 -7 18 -14 21 -14 7z"/>
 <path d="M1800 856 c0 -2 8 -10 18 -17 15 -13 16 -12 3 4 -13 16 -21 21 -21 13z"/>
 <path d="M2555 850 c3 -5 8 -10 11 -10 2 0 4 5 4 10 0 6 -5 10 -11 10 -5 0 -7 -4 -4 -10z"/>
 <path d="M400 840 c0 -5 5 -10 10 -10 6 0 10 5 10 10 0 6 -4 10 -10 10 -5 0 -10 -4 -10 -10z"/>
 <path d="M2445 840 c3 -5 8 -10 11 -10 2 0 4 5 4 10 0 6 -5 10 -11 10 -5 0 -7 -4 -4 -10z"/>
 <path d="M520 829 c0 -5 5 -7 10 -4 6 3 10 8 10 11 0 2 -4 4 -10 4 -5 0 -10 -5 -10 -11z"/>
 <path d="M615 820 c-3 -5 -1 -10 4 -10 6 0 11 5 11 10 0 6 -2 10 -4 10 -3 0 -8 -4 -11 -10z"/>
 <path d="M2614 755 c-3 -13 -4 -30 -1 -37 3 -7 6 0 6 16 1 25 4 28 26 24 13 -3 22 -2 20 3 -3 4 3 10 12 12 10 3 1 5 -19 6 -32 1 -39 -3 -44 -24z"/>
 <path d="M458 763 c12 -2 30 -2 40 0 9 3 -1 5 -23 4 -22 0 -30 -2 -17 -4z"/>
 <path d="M530 756 c0 -2 11 -6 25 -8 13 -3 22 -1 19 3 -5 9 -44 13 -44 5z"/>
 <path d="M723 753 c9 -2 17 -8 17 -13 0 -5 8 -6 17 -3 15 6 15 7 -3 14 -10 4 -26 7 -34 7 -10 0 -9 -2 3 -5z"/>
 <path d="M361 664 c0 -11 3 -14 6 -6 3 7 2 16 -1 19 -3 4 -6 -2 -5 -13z"/>
 <path d="M671 651 c-8 -5 -9 -11 -3 -15 5 -3 12 1 16 9 6 17 6 18 -13 6z"/>
 <path d="M601 634 c0 -11 3 -14 6 -6 3 7 2 16 -1 19 -3 4 -6 -2 -5 -13z"/>
 <path d="M2151 630 c-13 -11 -19 -20 -14 -20 6 0 18 9 28 20 23 25 17 25 -14 0z"/>
 <path d="M579 602 c5 -34 6 -35 9 -8 2 16 0 32 -5 37 -5 5 -7 -7 -4 -29z"/>
 <path d="M845 631 c-3 -5 -2 -12 3 -15 5 -3 9 1 9 9 0 17 -3 19 -12 6z"/>
 <path d="M2278 623 c7 -3 16 -2 19 1 4 3 -2 6 -13 5 -11 0 -14 -3 -6 -6z"/>
 <path d="M2209 593 c-13 -16 -12 -17 4 -4 16 13 21 21 13 21 -2 0 -10 -8 -17 -17z"/>
 <path d="M2308 603 c7 -3 16 -2 19 1 4 3 -2 6 -13 5 -11 0 -14 -3 -6 -6z"/>
 <path d="M2267 590 c10 -11 10 -17 -3 -31 -12 -14 -13 -18 -2 -25 7 -4 10 -3 5 1 -4 5 0 16 8 25 14 15 14 18 -2 31 -15 11 -16 11 -6 -1z"/>
 <path d="M748 583 c6 -2 18 -2 25 0 6 3 1 5 -13 5 -14 0 -19 -2 -12 -5z"/>
 <path d="M2310 555 c-7 -8 -9 -15 -5 -15 4 0 1 -8 -6 -17 -13 -16 -12 -17 4 -4 9 8 15 16 12 19 -3 3 0 11 6 19 6 7 9 13 6 13 -2 0 -10 -7 -17 -15z"/>
 <path d="M710 529 c0 -5 5 -7 10 -4 6 3 10 8 10 11 0 2 -4 4 -10 4 -5 0 -10 -5 -10 -11z"/>
 <path d="M2381 524 c0 -11 3 -14 6 -6 3 7 2 16 -1 19 -3 4 -6 -2 -5 -13z"/>
 <path d="M2333 523 c4 -3 3 -11 -3 -17 -6 -8 -3 -12 11 -13 16 -2 17 1 9 18 -6 10 -14 19 -17 19 -3 0 -3 -3 0 -7z"/>
 <path d="M715 501 c-3 -5 -2 -12 3 -15 5 -3 9 1 9 9 0 17 -3 19 -12 6z"/>
 <path d="M1478 483 c6 -2 18 -2 25 0 6 3 1 5 -13 5 -14 0 -19 -2 -12 -5z"/>
 <path d="M2240 480 c0 -6 7 -10 15 -10 8 0 15 2 15 4 0 2 -7 6 -15 10 -8 3 -15 1 -15 -4z"/>
 <path d="M811 471 c-8 -5 -9 -11 -3 -15 5 -3 12 1 16 9 6 17 6 18 -13 6z"/>
 <path d="M2266 452 c-3 -5 1 -9 9 -9 8 0 15 4 15 9 0 4 -4 8 -9 8 -6 0 -12 -4 -15 -8z"/>
 <path d="M2229 423 c-13 -16 -12 -17 4 -4 16 13 21 21 13 21 -2 0 -10 -8 -17 -17z"/>
 <path d="M800 416 c0 -2 8 -10 18 -17 15 -13 16 -12 3 4 -13 16 -21 21 -21 13z"/>
 <path d="M2145 410 c3 -5 8 -10 11 -10 2 0 4 5 4 10 0 6 -5 10 -11 10 -5 0 -7 -4 -4 -10z"/>
 <path d="M2010 390 c0 -5 4 -10 9 -10 6 0 13 5 16 10 3 6 -1 10 -9 10 -9 0 -16 -4 -16 -10z"/>
 <path d="M2137 389 c7 -7 15 -10 18 -7 3 3 -2 9 -12 12 -14 6 -15 5 -6 -5z"/>
 <path d="M2185 370 c3 -5 8 -10 11 -10 2 0 4 5 4 10 0 6 -5 10 -11 10 -5 0 -7 -4 -4 -10z"/>
 <path d="M2269 363 c-13 -16 -12 -17 4 -4 16 13 21 21 13 21 -2 0 -10 -8 -17 -17z"/>
 <path d="M910 354 c0 -1 8 -8 17 -15 14 -12 16 -12 8 0 -6 11 -4 13 9 8 9 -4 15 -3 11 2 -4 8 -45 12 -45 5z"/>
 <path d="M1925 350 c-3 -6 1 -7 9 -4 18 7 21 14 7 14 -6 0 -13 -4 -16 -10z"/>
 <path d="M1966 343 c-6 -14 -5 -15 5 -6 7 7 10 15 7 18 -3 3 -9 -2 -12 -12z"/>
 <path d="M874 338 c-4 -7 -3 -10 1 -5 5 4 18 -1 29 -10 21 -18 21 -18 2 5 -22 26 -23 26 -32 10z"/>
 <path d="M985 330 l-30 -8 33 -1 c17 0 32 4 32 9 0 6 -1 9 -2 9 -2 -1 -16 -5 -33 -9z"/>
 <path d="M2080 333 c14 -2 31 -12 38 -21 6 -9 12 -11 12 -6 0 18 -24 34 -49 33 l-26 -2 25 -4z"/>
 <path d="M2140 305 c0 -19 4 -35 8 -35 4 0 6 16 4 35 -2 19 -6 35 -8 35 -2 0 -4 -16 -4 -35z"/>
 <path d="M830 305 c-9 -10 -9 -15 -1 -15 6 0 11 5 11 11 0 8 6 7 18 -2 15 -13 16 -12 3 4 -16 21 -16 21 -31 2z"/>
 <path d="M2080 311 c0 -6 4 -13 10 -16 6 -3 7 1 4 9 -7 18 -14 21 -14 7z"/>
 <path d="M1488 298 c9 -9 15 -9 24 0 9 9 7 12 -12 12 -19 0 -21 -3 -12 -12z"/>
 <path d="M1956 297 c3 -10 9 -15 12 -12 3 3 0 11 -7 18 -10 9 -11 8 -5 -6z"/>
 <path d="M1005 290 c-3 -6 1 -7 9 -4 18 7 21 14 7 14 -6 0 -13 -4 -16 -10z"/>
 <path d="M2044 275 c-3 -8 -4 -20 -2 -27 3 -7 7 -1 10 15 6 29 1 36 -8 12z"/>
 <path d="M940 259 c0 -5 -4 -8 -9 -4 -5 3 -13 0 -17 -7 -4 -7 -3 -10 1 -5 5 4 16 0 26 -9 11 -10 19 -12 24 -4 3 6 3 10 -2 9 -20 -3 -25 2 -13 16 9 10 9 15 1 15 -6 0 -11 -5 -11 -11z"/>
 <path d="M1964 258 c-4 -7 -4 -10 1 -6 4 4 15 2 24 -5 14 -11 14 -10 2 6 -16 20 -18 21 -27 5z"/>
 <path d="M2089 243 c-13 -16 -12 -17 4 -4 16 13 21 21 13 21 -2 0 -10 -8 -17 -17z"/>
 <path d="M1712 195 c0 -16 2 -22 5 -12 2 9 2 23 0 30 -3 6 -5 -1 -5 -18z"/>
 <path d="M962 180 c0 -14 2 -19 5 -12 2 6 2 18 0 25 -3 6 -5 1 -5 -13z"/>
 <path d="M1325 189 c-11 -16 -1 -19 13 -3 7 8 8 14 3 14 -5 0 -13 -5 -16 -11z"/>
 <path d="M1662 186 c7 -8 15 -12 17 -11 5 6 -10 25 -20 25 -5 0 -4 -6 3 -14z"/>
 <path d="M1485 170 c-3 -5 3 -10 15 -10 12 0 18 5 15 10 -3 6 -10 10 -15 10 -5 0 -12 -4 -15 -10z"/>
 <path d="M1477 143 c-3 -5 8 -8 23 -8 15 0 26 3 23 8 -2 4 -13 7 -23 7 -10 0 -21 -3 -23 -7z"/>
 <path d="M1490 105 c0 -14 5 -25 10 -25 6 0 10 11 10 25 0 14 -4 25 -10 25 -5 0 -10 -11 -10 -25z"/>
 <path d="M1358 103 c6 -2 18 -2 25 0 6 3 1 5 -13 5 -14 0 -19 -2 -12 -5z"/>
 <path d="M1618 103 c6 -2 18 -2 25 0 6 3 1 5 -13 5 -14 0 -19 -2 -12 -5z"/>
 </g>
<g id="layer4" fill="#060699" stroke="none">
 <path d="M1460 1587 c-3 -3 -23 -7 -46 -9 -83 -10 -153 -72 -216 -190 -33 -62 -37 -134 -13 -214 16 -54 88 -174 105 -174 5 0 32 -14 60 -31 46 -28 57 -31 147 -32 93 -1 101 1 153 31 30 18 62 36 70 41 17 9 40 46 77 121 21 42 27 71 29 132 2 70 -1 83 -32 144 -60 120 -129 168 -254 179 -41 4 -77 5 -80 2z m57 -162 c10 -45 10 -45 -17 -45 -27 0 -27 0 -17 45 6 25 13 45 17 45 4 0 11 -20 17 -45z m-90 -69 c-19 -17 -36 -38 -39 -46 -4 -11 -15 -6 -44 24 -35 35 -37 38 -14 32 86 -22 83 -23 76 18 -4 21 -10 45 -13 54 -3 9 10 2 30 -17 l37 -35 -33 -30z m173 53 c-19 -65 -18 -66 70 -43 23 6 21 3 -14 -32 -28 -29 -40 -35 -44 -25 -7 19 -44 57 -63 63 -10 4 -5 14 20 42 19 19 36 34 38 33 1 -2 -2 -19 -7 -38z m-24 -73 c38 -38 44 -77 19 -126 -17 -32 -61 -60 -95 -60 -29 0 -76 26 -94 52 -9 12 -16 40 -16 61 0 31 7 46 34 73 28 28 42 34 76 34 34 0 48 -6 76 -34z m-196 -75 l0 -28 -45 10 c-25 6 -45 13 -45 17 0 5 53 24 83 29 4 0 7 -12 7 -28z m330 -1 c0 -4 -20 -11 -45 -17 -45 -10 -45 -10 -45 17 0 27 0 27 45 17 25 -6 45 -13 45 -17z m-316 -56 c10 -26 7 -32 -21 -38 -16 -4 -37 -10 -48 -13 -15 -4 -12 3 14 31 39 40 46 43 55 20z m267 -20 c26 -28 29 -35 14 -31 -11 3 -32 9 -47 13 -29 6 -32 12 -22 38 9 23 16 20 55 -20z m-201 -44 c0 -9 -59 -64 -64 -59 -3 2 0 23 7 46 10 38 12 40 34 30 13 -5 23 -13 23 -17z m143 -59 c-4 -5 -63 50 -63 59 0 4 10 12 23 17 20 9 23 7 33 -31 6 -22 9 -43 7 -45z m-86 14 c-6 -25 -13 -45 -17 -45 -4 0 -11 20 -17 45 -10 45 -10 45 17 45 27 0 27 0 17 -45z"/>
 </g>
<g id="layer5" fill="#efcc5d" stroke="none">
 <path d="M1169 2308 c-10 -19 -7 -26 32 -59 50 -43 111 -76 159 -85 48 -10 35 15 -24 46 -27 13 -72 46 -99 72 -28 27 -52 48 -54 48 -1 0 -8 -10 -14 -22z"/>
 <path d="M1720 2284 c-25 -25 -66 -57 -92 -70 -45 -23 -65 -54 -35 -54 23 0 130 59 171 94 34 29 37 35 27 54 -7 12 -15 22 -19 22 -4 0 -28 -21 -52 -46z"/>
 <path d="M1410 2170 c0 -37 4 -50 13 -47 7 2 12 21 12 47 0 26 -5 45 -12 48 -9 2 -13 -11 -13 -48z"/>
 <path d="M1470 2171 c0 -53 15 -69 26 -27 8 33 2 69 -13 74 -9 2 -13 -11 -13 -47z"/>
 <path d="M1524 2195 c-7 -29 2 -75 15 -75 5 0 12 11 15 25 7 29 -2 75 -15 75 -5 0 -11 -11 -15 -25z"/>
 <path d="M1195 2160 c-33 -4 -132 -11 -220 -16 l-160 -8 90 -9 c101 -9 406 -4 425 8 9 5 2 12 -20 21 -18 8 -37 13 -44 13 -6 -1 -38 -5 -71 -9z"/>
 <path d="M1641 2156 c-29 -11 -31 -14 -15 -21 30 -12 342 -17 424 -7 l75 9 -75 2 c-72 1 -282 17 -345 25 -16 2 -45 -1 -64 -8z"/>
 <path d="M1010 2049 c-117 -105 -330 -233 -545 -327 -113 -49 -83 -47 80 5 221 71 393 166 558 308 59 50 60 65 5 65 -37 -1 -51 -8 -98 -51z"/>
 <path d="M1170 2087 c0 -8 -11 -35 -24 -60 -13 -26 -20 -47 -17 -47 4 0 33 27 66 60 l59 60 -42 0 c-28 0 -42 -4 -42 -13z"/>
 <path d="M1770 2092 c0 -8 114 -122 122 -122 2 0 -10 29 -27 65 -28 60 -32 65 -62 65 -18 0 -33 -4 -33 -8z"/>
 <path d="M1860 2091 c0 -16 95 -121 156 -174 121 -104 273 -187 437 -242 133 -43 215 -56 97 -15 -224 79 -444 231 -566 390 -35 46 -41 50 -81 50 -24 0 -43 -4 -43 -9z"/>
 <path d="M854 1838 c-37 -19 -42 -25 -48 -66 -8 -60 -6 -212 3 -235 4 -13 11 5 19 55 7 40 25 117 41 171 15 53 28 97 27 96 -1 0 -20 -10 -42 -21z"/>
 <path d="M718 1748 c-69 -75 -94 -114 -138 -215 -79 -184 -134 -463 -80 -407 5 5 21 56 36 114 48 188 119 351 208 484 25 38 46 70 46 72 0 17 -32 -5 -72 -48z"/>
 <path d="M2154 1774 c18 -46 57 -194 62 -236 4 -27 11 -51 15 -54 11 -6 12 82 3 189 -7 74 -8 77 -41 97 -41 24 -47 25 -39 4z"/>
 <path d="M631 1737 c-41 -16 -63 -33 -97 -76 -84 -107 -168 -292 -210 -465 -27 -116 -29 -136 -11 -136 31 0 64 56 85 143 38 158 126 334 239 477 35 44 60 79 56 79 -5 -1 -32 -10 -62 -22z"/>
 <path d="M2308 1683 c80 -103 190 -319 241 -475 20 -59 27 -69 62 -86 21 -11 39 -16 39 -11 0 28 -88 270 -129 354 -68 139 -116 201 -181 231 -29 13 -54 24 -57 24 -2 0 9 -17 25 -37z"/>
 <path d="M2296 1625 c46 -120 92 -272 110 -358 18 -85 28 -107 49 -107 14 0 -2 105 -35 228 -22 81 -95 239 -130 282 -18 22 -17 17 6 -45z"/>
 <path d="M2255 1650 c13 -65 45 -346 45 -390 0 -39 4 -52 20 -60 19 -10 20 -8 20 47 0 76 -17 213 -36 285 -15 60 -57 160 -49 118z"/>
 <path d="M641 1491 c-40 -96 -41 -103 -41 -211 0 -93 3 -112 16 -117 9 -3 24 -2 33 4 13 8 17 38 23 159 3 82 9 175 11 207 3 31 4 57 2 57 -1 0 -21 -45 -44 -99z"/>
 <path d="M2378 693 c-34 -70 -35 -74 -17 -84 11 -5 19 -8 19 -6 0 3 15 38 34 80 31 66 33 76 17 80 -13 3 -25 -14 -53 -70z"/>
 <path d="M2179 689 c-27 -51 -31 -65 -17 -52 33 29 80 102 73 113 -12 19 -20 10 -56 -61z"/>
 <path d="M2613 673 c-5 -49 -9 -90 -7 -91 3 -4 54 155 54 169 0 5 -8 9 -18 9 -16 0 -20 -13 -29 -87z"/>
 <path d="M337 710 c19 -48 28 -45 19 5 -4 20 -13 35 -21 35 -11 0 -11 -7 2 -40z"/>
 <path d="M540 745 c0 -2 7 -23 16 -46 15 -35 19 -39 31 -26 13 13 13 18 -1 46 -9 17 -23 31 -31 31 -8 0 -15 -2 -15 -5z"/>
 <path d="M759 723 c13 -22 38 -50 74 -83 26 -23 25 -20 -9 38 -25 41 -43 62 -56 62 -15 0 -17 -3 -9 -17z"/>
 <path d="M688 658 c24 -12 31 -34 7 -24 -12 4 -13 2 -2 -14 8 -13 23 -20 44 -20 40 0 41 6 6 42 -16 17 -37 28 -52 27 l-26 0 23 -11z"/>
 <path d="M650 617 c29 -50 20 -71 -10 -22 -13 21 -26 33 -28 26 -8 -25 68 -105 85 -88 11 12 -8 58 -38 90 l-31 32 22 -38z"/>
 <path d="M568 617 c-12 -29 -9 -55 8 -89 l16 -32 14 26 c16 30 9 59 -11 52 -9 -4 -15 5 -17 28 -2 26 -5 29 -10 15z"/>
 <path d="M2225 598 l-27 -21 27 -15 c24 -12 29 -12 43 2 11 10 12 16 4 16 -22 0 -13 16 16 27 l27 11 -31 1 c-18 1 -43 -8 -59 -21z"/>
 <path d="M2289 551 c-22 -21 -39 -46 -39 -55 0 -28 37 -18 69 19 43 49 39 64 -4 17 -20 -21 -35 -31 -35 -22 0 8 14 29 32 47 18 18 28 33 24 33 -5 0 -26 -17 -47 -39z"/>
 <path d="M762 563 c21 -8 35 -19 32 -24 -3 -5 -13 -5 -24 1 -31 17 -35 11 -10 -15 14 -15 35 -25 52 -25 33 0 34 6 11 40 -23 34 -33 40 -68 39 l-30 0 37 -16z"/>
 <path d="M2159 535 c-28 -15 -43 -40 -33 -56 9 -14 31 -11 66 12 l33 20 -32 -6 c-20 -4 -33 -3 -33 4 0 5 16 13 36 17 25 5 32 9 22 15 -18 12 -28 11 -59 -6z"/>
 <path d="M2366 522 c-5 -23 -12 -32 -22 -28 -19 7 -26 -8 -18 -39 6 -25 7 -25 25 -9 19 17 35 73 27 96 -3 7 -8 -2 -12 -20z"/>
 <path d="M627 511 c-7 -29 3 -68 23 -86 17 -16 19 -15 30 5 14 27 6 52 -15 44 -11 -5 -15 1 -15 25 0 34 -15 42 -23 12z"/>
 <path d="M720 527 c0 -4 7 -19 16 -32 20 -31 8 -32 -23 -3 -13 12 -23 17 -23 12 0 -20 31 -52 60 -62 27 -10 30 -9 30 8 0 18 -59 94 -60 77z"/>
 <path d="M862 473 c2 -14 -3 -17 -22 -15 -24 2 -24 2 -5 -12 20 -14 56 -8 63 12 2 6 -6 16 -18 22 -18 10 -21 9 -18 -7z"/>
 <path d="M2190 462 c-34 -34 -39 -62 -11 -62 21 0 71 36 71 51 0 6 -12 1 -27 -10 -34 -28 -43 -18 -13 14 34 36 16 43 -20 7z"/>
 <path d="M2056 459 c-17 -10 -16 -12 12 -26 23 -11 35 -12 49 -4 16 9 15 10 -9 11 -20 0 -26 4 -22 15 7 18 -3 19 -30 4z"/>
 <path d="M2288 443 c-4 -18 -12 -33 -17 -33 -6 0 -8 8 -4 18 3 11 0 9 -11 -6 -18 -23 -19 -67 -2 -67 20 0 47 53 44 86 l-3 34 -7 -32z"/>
 <path d="M705 420 c-7 -22 23 -91 42 -97 13 -5 25 40 17 61 -5 13 -9 14 -20 5 -11 -9 -14 -7 -14 14 0 33 -17 44 -25 17z"/>
 <path d="M800 431 c0 -5 7 -14 15 -21 8 -7 12 -17 9 -22 -3 -5 -17 1 -30 13 -13 12 -24 18 -24 12 0 -14 31 -40 63 -52 23 -9 27 -8 27 8 0 10 -9 30 -21 45 -20 26 -39 34 -39 17z"/>
 <path d="M872 424 c-20 -9 -3 -24 29 -24 27 0 44 -20 17 -20 -7 0 -5 -5 5 -11 20 -12 67 -4 67 10 0 24 -88 57 -118 45z"/>
 <path d="M1364 405 c-22 -22 -25 -33 -22 -73 2 -40 -1 -51 -25 -74 -56 -56 -21 -148 57 -148 27 0 36 -5 41 -22 28 -91 142 -91 170 0 5 17 14 22 41 22 78 0 114 94 56 148 -24 23 -28 33 -24 70 5 56 -16 89 -64 98 -28 5 -42 2 -65 -15 l-30 -22 -26 20 c-35 29 -78 27 -109 -4z m56 -39 c10 -26 28 -42 37 -32 4 4 1 12 -5 18 -17 17 -15 38 3 38 9 0 15 -9 15 -25 0 -21 5 -25 30 -25 25 0 30 4 30 25 0 16 6 25 15 25 18 0 20 -21 3 -38 -6 -6 -9 -15 -5 -18 9 -9 37 15 37 32 0 18 20 28 32 16 6 -6 0 -19 -18 -38 -21 -20 -25 -29 -15 -32 8 -3 20 3 27 13 7 9 18 14 24 10 8 -5 4 -14 -13 -29 -21 -17 -24 -25 -16 -45 7 -18 14 -22 34 -17 19 5 25 2 25 -9 0 -11 -6 -14 -24 -9 -13 3 -27 1 -30 -5 -4 -6 5 -13 21 -17 46 -10 53 -13 53 -25 0 -7 -8 -9 -22 -4 -13 3 -34 9 -48 11 l-25 5 29 -24 c20 -18 25 -27 16 -32 -8 -5 -16 -1 -22 9 -11 20 -27 20 -52 1 -16 -12 -17 -18 -8 -27 17 -17 15 -38 -3 -38 -9 0 -15 9 -15 25 0 14 -5 25 -11 25 -6 0 -9 -15 -7 -38 2 -28 -1 -37 -12 -37 -11 0 -14 9 -12 38 2 22 -1 37 -7 37 -6 0 -11 -11 -11 -25 0 -16 -6 -25 -15 -25 -18 0 -20 21 -3 38 9 9 8 15 -8 27 -25 19 -41 19 -52 -1 -6 -10 -14 -14 -22 -9 -9 5 -4 14 16 32 l29 24 -25 -5 c-14 -2 -35 -8 -47 -11 -15 -5 -23 -3 -23 4 0 12 7 15 53 25 16 4 25 11 21 17 -3 6 -17 8 -30 5 -18 -5 -24 -2 -24 9 0 11 6 14 25 9 20 -5 27 -1 34 17 8 20 5 28 -16 45 -17 15 -21 24 -13 29 6 4 17 -1 24 -10 7 -10 19 -16 27 -13 10 3 6 12 -14 32 -15 15 -25 32 -22 37 11 16 25 10 35 -15z"/>
 <path d="M1449 307 c-44 -34 -49 -83 -13 -126 20 -25 34 -31 64 -31 30 0 44 6 64 31 36 43 31 92 -13 126 -21 16 -81 16 -102 0z m99 -17 c47 -44 15 -130 -48 -130 -38 0 -70 34 -70 75 0 41 32 75 70 75 14 0 36 -9 48 -20z"/>
 <path d="M1453 264 c-15 -24 -15 -29 -2 -53 11 -20 22 -26 49 -26 27 0 38 6 49 26 13 24 13 29 -2 53 -12 18 -26 26 -47 26 -21 0 -35 -8 -47 -26z"/>
 <path d="M1978 409 c-23 -13 -23 -26 1 -39 13 -6 28 -7 43 -1 17 7 19 10 6 10 -10 1 -18 6 -18 12 0 7 11 9 30 6 16 -4 32 -2 35 2 12 20 -66 28 -97 10z"/>
 <path d="M2101 395 c-17 -15 -31 -33 -31 -41 0 -21 44 -17 71 6 26 21 19 26 -13 9 -29 -16 -34 -2 -7 20 13 11 21 22 18 26 -4 3 -21 -6 -38 -20z"/>
 <path d="M2198 369 c-1 -12 -9 -24 -16 -27 -8 -2 -10 2 -6 15 6 16 5 16 -9 -2 -9 -11 -17 -33 -17 -48 0 -25 2 -27 21 -17 26 14 54 79 41 92 -7 7 -11 2 -14 -13z"/>
 <path d="M1885 366 l-28 -12 26 -17 c29 -19 77 -23 77 -7 0 6 -9 10 -20 10 -25 0 -27 17 -2 22 14 3 14 5 -4 10 -11 3 -33 0 -49 -6z"/>
 <path d="M880 364 c0 -4 10 -18 22 -31 25 -27 9 -30 -30 -6 l-27 16 25 -26 c14 -14 37 -29 53 -32 22 -6 27 -4 27 12 0 11 -10 29 -22 40 -29 26 -48 36 -48 27z"/>
 <path d="M2025 350 c-47 -18 -68 -70 -29 -70 22 0 81 33 67 37 -7 2 -21 -1 -32 -7 -28 -15 -27 4 2 23 26 17 21 28 -8 17z"/>
 <path d="M796 342 c-4 -7 -5 -23 -2 -35 6 -25 42 -67 56 -67 13 0 13 57 0 65 -5 3 -10 1 -10 -4 0 -24 -18 -9 -26 21 -7 23 -12 29 -18 20z"/>
 <path d="M993 343 c15 -2 27 -9 27 -14 0 -5 -12 -9 -27 -10 l-28 0 25 -10 c26 -11 90 -4 90 10 0 13 -49 31 -83 30 -30 -2 -30 -2 -4 -6z"/>
 <path d="M2098 295 c-12 -27 -34 -35 -24 -9 5 14 4 15 -9 4 -16 -13 -21 -70 -6 -70 15 0 61 60 61 81 0 26 -8 24 -22 -6z"/>
 <path d="M1892 284 c-12 -8 -22 -22 -22 -30 0 -19 60 -19 86 1 22 17 3 21 -26 5 -13 -7 -21 -7 -25 0 -3 5 -2 10 2 10 5 0 18 7 29 15 19 14 19 14 -1 15 -11 0 -31 -7 -43 -16z"/>
 <path d="M993 267 c33 -27 25 -43 -9 -20 -30 19 -41 12 -17 -9 29 -25 72 -31 80 -12 7 20 -38 64 -65 64 -13 -1 -10 -6 11 -23z"/>
 <path d="M890 244 c0 -16 12 -38 33 -57 l32 -32 3 29 c2 18 -3 35 -14 45 -10 10 -14 11 -9 2 5 -9 3 -12 -6 -9 -8 3 -15 14 -17 26 -5 31 -22 27 -22 -4z"/>
 <path d="M1995 240 c-4 -13 -14 -19 -28 -17 -17 2 -23 -4 -25 -25 -2 -16 1 -28 7 -28 16 0 59 43 66 68 8 27 -11 30 -20 2z"/>
 </g>
<g id="layer6" fill="#322f24" stroke="none">
 <path d="M1151 2323 l-24 -37 34 -30 c19 -17 47 -41 64 -52 l29 -22 -109 -8 c-156 -12 -502 -9 -549 4 -45 13 -57 8 -35 -13 18 -18 149 -40 329 -56 l143 -13 -44 -38 c-72 -63 -244 -174 -370 -238 -129 -66 -322 -144 -381 -155 -22 -4 -35 -12 -32 -17 10 -15 121 -2 231 26 55 14 90 19 85 12 -4 -6 -23 -36 -43 -66 -83 -126 -166 -339 -191 -490 -10 -65 -17 -81 -52 -120 -22 -25 -54 -53 -72 -62 -29 -16 -109 -101 -147 -158 -35 -51 -30 -53 132 -48 l149 4 28 -58 c15 -32 37 -66 47 -76 19 -17 20 -16 13 43 -4 33 -9 68 -12 78 -5 15 3 17 66 17 l71 0 23 -51 c19 -41 22 -55 13 -78 -15 -40 0 -99 34 -133 16 -16 29 -33 29 -38 0 -14 51 -70 63 -70 7 0 19 -15 28 -33 9 -17 29 -39 45 -47 16 -8 33 -22 38 -29 15 -24 58 -61 71 -61 7 0 29 -16 49 -35 48 -45 76 -47 76 -4 0 27 3 30 28 29 76 -5 84 2 57 53 -14 26 -13 28 11 37 14 6 30 10 35 10 21 0 -15 43 -49 59 -20 9 -52 31 -71 49 -18 18 -39 32 -45 32 -7 0 -18 11 -24 25 -7 14 -23 30 -36 36 -14 7 -30 25 -37 41 -6 16 -20 33 -30 39 -10 5 -25 24 -34 42 -20 43 -62 67 -117 67 -37 0 -45 4 -60 31 l-18 30 63 -7 c56 -5 65 -10 92 -42 66 -82 142 -138 161 -120 2 3 -18 38 -45 79 l-50 74 92 6 c51 3 100 9 110 14 10 4 44 46 76 94 55 81 114 145 157 169 10 6 16 14 12 17 -4 4 -27 -7 -51 -25 -44 -31 -96 -94 -153 -185 -16 -24 -38 -48 -49 -54 -11 -5 -95 -12 -187 -15 l-168 -5 0 24 c0 36 44 81 92 94 24 6 84 16 133 21 82 9 92 12 109 37 36 51 115 122 171 154 52 29 71 45 41 33 -15 -6 -43 77 -32 95 4 6 1 9 -7 6 -8 -4 -24 10 -40 32 -29 41 -24 53 26 53 15 0 27 5 27 10 0 15 -41 12 -74 -5 -15 -8 -48 -15 -71 -15 -25 0 -50 -6 -59 -15 -8 -8 -23 -15 -33 -15 -11 0 -28 -7 -39 -15 -10 -8 -35 -15 -55 -15 -22 0 -39 -6 -42 -14 -4 -9 -25 -15 -56 -17 l-51 -4 0 60 c0 33 5 132 11 220 10 154 11 162 42 210 l32 50 7 -130 c7 -131 20 -191 38 -180 5 3 10 18 10 33 0 48 29 194 61 307 29 104 33 112 68 132 20 12 65 45 101 74 36 29 60 46 54 38 -6 -8 -25 -33 -42 -56 -69 -89 19 -44 136 70 34 34 62 66 62 72 0 16 121 35 127 20 6 -18 163 -16 170 1 3 8 9 12 13 9 4 -3 40 -9 80 -15 70 -10 73 -12 123 -67 52 -56 160 -143 179 -143 6 0 7 7 4 15 -7 20 3 14 87 -55 l68 -54 34 -111 c39 -125 55 -212 55 -302 0 -36 4 -63 10 -63 16 0 30 45 31 98 l1 47 9 -35 c4 -19 11 -79 15 -132 l7 -98 -32 0 c-18 0 -40 9 -52 21 -15 15 -29 19 -47 16 -15 -3 -34 0 -42 7 -27 22 -126 57 -156 54 -16 -1 -39 4 -51 10 -12 7 -37 12 -55 11 l-33 -1 31 -8 c68 -16 68 -16 37 -60 -15 -22 -34 -38 -41 -35 -7 3 -10 0 -7 -5 8 -12 -15 -90 -27 -90 -20 0 -5 -16 31 -33 45 -20 151 -114 170 -150 18 -33 23 -35 139 -48 116 -13 168 -32 187 -70 31 -59 31 -59 -153 -59 -132 0 -172 3 -189 15 -11 8 -47 53 -78 100 -51 77 -149 174 -163 161 -2 -3 21 -28 52 -57 31 -28 81 -88 111 -134 30 -45 61 -85 70 -89 9 -3 55 -6 101 -6 65 0 86 -3 90 -15 3 -8 -15 -49 -40 -91 -25 -42 -46 -78 -46 -80 0 -2 12 1 28 7 36 14 76 53 118 117 33 49 37 52 78 52 23 0 47 5 54 12 24 24 20 1 -9 -62 l-30 -65 -45 3 c-47 4 -39 10 -164 -111 -14 -14 -40 -32 -58 -41 -18 -10 -36 -24 -39 -32 -3 -7 -13 -14 -22 -14 -9 0 -34 -12 -56 -25 -22 -14 -47 -25 -56 -25 -9 0 -27 -9 -40 -20 -23 -19 -23 -20 -5 -35 10 -8 24 -16 30 -18 6 -2 1 -15 -12 -32 -12 -15 -22 -34 -22 -42 0 -12 53 -31 74 -25 5 2 6 -13 3 -33 -5 -33 -4 -35 22 -35 16 0 39 8 52 18 13 11 36 22 51 25 14 4 39 17 55 30 15 13 43 29 61 37 18 7 41 23 51 36 11 13 24 24 31 24 20 0 148 135 156 164 3 15 4 44 0 66 -5 32 1 53 35 124 l41 86 66 0 65 0 -7 -72 c-4 -40 -12 -95 -18 -121 -5 -27 -7 -51 -3 -55 17 -18 84 123 101 213 l7 38 158 -7 c169 -6 173 -5 146 39 -39 65 -114 147 -149 162 -22 10 -48 32 -59 50 -11 17 -37 40 -58 50 -36 17 -40 23 -61 98 -49 171 -127 354 -192 450 l-34 51 86 -23 c111 -30 228 -40 261 -23 22 13 19 14 -54 27 -242 41 -506 185 -676 370 -39 42 -71 80 -71 84 0 4 19 10 43 13 187 23 273 38 294 52 14 8 23 18 20 20 -2 2 -39 -1 -83 -7 -77 -11 -371 -5 -491 9 l-53 7 60 48 c33 26 60 51 60 55 0 4 -13 23 -29 42 l-30 35 -58 -56 c-67 -66 -138 -107 -146 -85 -8 20 -164 20 -175 0 -12 -21 -78 16 -143 81 -30 30 -58 55 -64 55 -5 0 -21 -17 -34 -37z m187 -107 c37 -19 52 -32 52 -46 0 -17 -4 -19 -27 -14 -52 12 -88 31 -150 78 -35 26 -63 50 -63 52 0 3 7 16 16 30 l17 24 52 -49 c28 -27 75 -61 103 -75z m436 39 c-43 -38 -134 -89 -176 -99 -24 -6 -28 -3 -28 16 0 18 10 27 44 41 24 10 70 42 102 71 l58 53 19 -24 19 -24 -38 -34z m-334 -85 c0 -37 -4 -50 -15 -50 -18 0 -29 41 -21 75 4 14 13 25 21 25 11 0 15 -13 15 -50z m60 -1 c0 -43 -3 -50 -17 -47 -12 2 -19 14 -21 37 -4 41 3 61 23 61 11 0 15 -12 15 -51z m55 1 c0 -33 -4 -45 -15 -45 -11 0 -16 13 -18 48 -3 42 -1 48 15 45 14 -3 18 -13 18 -48z m-231 -14 c59 -20 29 -29 -128 -35 -146 -6 -341 2 -436 18 -44 7 -18 9 135 11 105 1 219 6 255 10 103 11 132 11 174 -4z m661 -2 c254 -8 257 -17 9 -33 -97 -7 -189 -7 -255 -1 -57 5 -112 9 -121 10 -10 0 -18 4 -18 8 0 15 65 30 110 26 25 -2 149 -7 275 -10z m-845 -53 c25 -8 24 -9 -32 -65 -140 -138 -414 -281 -655 -342 -137 -34 -143 -29 -23 20 216 88 442 221 579 340 64 56 81 62 131 47z m110 -10 c0 -11 -142 -142 -148 -137 -2 2 8 21 22 43 14 21 30 53 37 71 10 29 15 32 50 32 21 0 39 -4 39 -9z m600 -6 c0 -19 36 -93 59 -119 15 -18 15 -19 -1 -10 -29 16 -127 104 -138 125 -10 17 -7 19 35 19 34 0 45 -4 45 -15z m128 -18 c34 -51 150 -165 217 -215 128 -94 293 -174 439 -212 85 -23 44 -27 -54 -6 -158 34 -371 130 -497 225 -88 67 -223 203 -223 226 0 11 12 15 48 15 42 0 49 -4 70 -33z m-1082 -224 c-17 -42 -66 -253 -72 -306 -12 -101 -24 -41 -24 120 l0 152 43 25 c50 30 62 32 53 9z m-106 -49 c0 -4 -20 -37 -45 -74 -87 -130 -184 -368 -216 -527 -10 -46 -18 -65 -32 -69 -10 -3 -21 -3 -25 0 -11 11 28 200 64 305 19 57 51 135 70 172 49 93 184 235 184 193z m1402 -18 c20 -11 39 -28 42 -40 9 -34 6 -333 -4 -311 -4 11 -12 56 -18 100 -9 65 -42 190 -70 263 -6 16 -5 16 50 -12z m-1506 -38 c-153 -191 -253 -385 -292 -568 -11 -52 -20 -70 -46 -92 -30 -25 -58 -36 -58 -23 0 3 9 49 21 102 40 186 122 376 214 499 38 51 52 63 112 86 37 15 70 27 72 27 2 1 -8 -14 -23 -31z m1732 -96 c76 -85 173 -300 237 -528 l5 -21 -44 21 c-43 20 -46 25 -76 111 -58 164 -149 337 -256 483 l-17 23 59 -25 c34 -15 73 -42 92 -64z m-69 -61 c21 -42 50 -113 64 -157 31 -97 61 -250 53 -270 -3 -8 -1 -14 4 -14 6 0 10 -4 10 -9 0 -4 -54 -27 -121 -51 -66 -23 -118 -44 -116 -46 2 -2 62 17 133 42 148 54 197 58 250 22 40 -27 42 -35 12 -41 -13 -3 -5 -5 17 -4 22 0 50 -5 62 -11 27 -15 64 -62 58 -72 -3 -5 9 -11 26 -15 17 -4 47 -21 66 -38 l36 -32 -34 -6 -34 -6 37 -2 c30 -1 43 -8 72 -45 20 -23 36 -46 36 -50 0 -3 -71 -6 -158 -6 l-158 0 -2 -26 c-2 -32 -48 -164 -60 -176 -6 -6 -6 9 -1 39 4 26 9 76 11 111 l4 62 -128 0 -128 0 0 24 c0 22 5 25 43 29 40 4 40 4 -7 3 -41 0 -52 4 -73 29 -14 16 -35 29 -47 30 -135 11 -232 28 -244 43 -12 15 -8 18 35 29 26 6 70 12 97 12 45 1 52 -2 85 -38 28 -30 40 -37 56 -30 20 7 20 8 -1 8 -11 1 -28 9 -38 20 -16 17 -15 19 29 31 25 7 43 15 41 18 -3 2 -25 -3 -49 -11 -43 -14 -45 -14 -73 8 l-28 22 23 8 c12 4 20 9 18 12 -3 2 -14 0 -24 -5 -13 -8 -24 -5 -40 8 l-23 18 23 16 c21 15 20 15 -10 1 l-33 -15 33 -30 32 -29 -35 -1 c-20 0 -59 -6 -88 -14 -50 -13 -53 -12 -67 8 -8 11 -15 24 -15 27 0 7 40 22 93 33 15 4 27 10 27 15 0 9 -17 5 -100 -24 -30 -10 -40 -9 -58 3 l-22 14 20 28 c11 15 33 33 50 40 16 7 30 16 30 21 0 19 102 89 130 89 24 0 60 -25 49 -34 -2 -1 -30 -22 -62 -46 -52 -38 -61 -42 -79 -31 -31 19 -29 9 4 -18 16 -13 27 -19 26 -13 -4 12 93 89 129 103 46 17 139 -9 105 -30 -5 -3 22 -6 62 -6 39 -1 64 1 56 2 -11 3 -21 30 -33 88 -18 86 -86 306 -126 405 l-23 55 26 -24 c14 -13 43 -58 65 -100z m-39 -54 c10 -37 21 -99 24 -137 3 -39 9 -102 12 -140 l5 -70 -25 11 c-22 10 -25 19 -31 88 -4 42 -15 144 -26 226 -10 83 -19 157 -18 165 1 23 38 -67 59 -143z m-1627 -139 c-4 -152 -9 -207 -19 -219 -19 -21 -18 -29 4 -29 10 0 57 -24 106 -52 85 -52 87 -53 66 -70 -20 -16 -24 -15 -88 9 -37 14 -106 39 -155 56 -92 32 -99 45 -28 54 33 5 41 9 36 21 -14 37 -17 199 -5 238 12 39 81 194 85 194 1 0 0 -91 -2 -202z m-171 21 c-16 -46 -28 -98 -58 -255 -3 -19 -41 -40 -52 -29 -9 8 50 193 85 268 20 42 38 76 40 74 2 -2 -5 -28 -15 -58z m1987 -124 c58 -148 57 -145 26 -145 -31 0 -36 11 -63 150 -11 58 -23 114 -27 125 -18 56 29 -42 64 -130z m-99 -92 c0 -16 -6 -23 -20 -23 -18 0 -20 7 -20 79 0 43 -2 94 -5 112 -3 19 6 -6 20 -56 13 -49 25 -100 25 -112z m-1820 42 c0 -59 -3 -77 -15 -82 -9 -3 -19 -3 -22 1 -6 6 26 156 34 156 2 0 3 -34 3 -75z m1438 42 c8 -10 -1 -22 -39 -50 l-49 -37 -30 18 -29 18 22 32 c19 28 28 32 68 32 26 0 51 -6 57 -13z m-914 -28 c14 -17 26 -37 26 -45 0 -8 4 -14 10 -14 5 0 15 -18 21 -41 11 -34 10 -42 -2 -50 -18 -11 -29 -11 -29 0 0 5 -11 23 -25 39 l-26 31 23 15 c12 9 17 16 11 16 -7 0 -18 -6 -25 -13 -10 -11 -22 -6 -66 27 -49 37 -52 41 -36 53 10 7 35 13 55 13 29 0 43 -7 63 -31z m980 5 c25 -10 19 -23 -26 -65 -49 -44 -54 -45 -82 -21 -21 17 -21 17 -2 -6 11 -12 17 -23 15 -25 -2 -1 -20 -17 -40 -35 -38 -34 -69 -35 -69 -2 0 34 139 160 176 160 7 0 19 -3 28 -6z m-1077 -41 c46 -31 52 -38 37 -44 -11 -3 -28 -16 -38 -28 -11 -11 -27 -21 -36 -21 -10 0 -23 -7 -30 -15 -11 -13 -18 -11 -54 15 -95 69 -93 67 -75 86 24 23 67 11 131 -38 l53 -40 -50 45 c-42 39 -47 47 -36 61 20 24 37 20 98 -21z m892 -17 c10 -12 8 -23 -11 -55 -24 -42 -34 -46 -51 -20 -12 19 17 89 36 89 8 0 20 -6 26 -14z m-1045 -64 c56 -42 62 -50 53 -70 -6 -12 -17 -22 -24 -22 -8 0 -55 24 -105 54 -49 30 -95 57 -101 60 -24 9 18 26 66 26 42 0 56 -6 111 -48z m246 -4 c11 -18 20 -37 20 -43 0 -5 -18 -25 -41 -43 l-40 -34 -40 16 c-22 9 -51 16 -64 16 -30 0 -31 9 -4 44 29 37 74 35 116 -6 18 -18 33 -27 33 -21 0 6 -16 25 -37 42 -31 25 -34 32 -23 45 22 27 58 19 80 -16z m-447 -75 c86 -31 157 -61 157 -65 0 -5 -11 -13 -24 -18 -13 -4 -32 -20 -44 -34 -15 -19 -30 -26 -58 -27 l-39 -2 35 -6 35 -7 -40 -40 c-25 -26 -39 -49 -37 -62 3 -19 -4 -20 -130 -27 -73 -3 -213 -5 -311 -3 l-179 3 37 48 c20 26 44 47 53 47 12 0 14 2 4 8 -9 6 -7 13 10 29 39 35 64 43 145 45 76 2 77 2 16 5 -35 2 -63 9 -63 14 0 6 15 26 34 45 28 28 42 34 78 35 28 0 37 3 25 8 -18 6 -18 7 0 22 62 54 103 52 296 -18z m351 -42 l30 -12 -25 -25 c-21 -21 -30 -23 -50 -15 -14 5 -51 12 -83 16 l-57 7 23 25 c20 22 29 24 78 20 30 -2 68 -10 84 -16z m-92 -52 c29 -6 57 -14 61 -18 17 -17 -26 -32 -114 -42 -52 -5 -106 -14 -121 -19 -40 -13 -35 1 17 49 49 45 67 49 157 30z m1538 -198 c0 -19 -69 -161 -78 -161 -5 0 -15 6 -21 13 -16 20 53 157 79 157 11 0 20 -4 20 -9z m-1861 -40 c15 -29 17 -41 8 -50 -19 -19 -27 -13 -47 35 -24 56 -24 54 0 54 13 0 26 -13 39 -39z m1661 34 c0 -17 -97 -145 -110 -145 -4 0 10 34 32 75 28 54 45 75 59 75 10 0 19 -2 19 -5z m-1887 -52 c3 -27 4 -49 2 -51 -3 -3 -45 84 -45 93 0 3 8 5 19 5 15 0 19 -10 24 -47z m464 -20 c23 -38 39 -70 36 -73 -6 -6 -123 117 -123 130 0 6 11 10 23 10 19 0 33 -15 64 -67z m-78 -40 l36 -37 -39 -7 c-34 -6 -42 -3 -62 20 -26 31 -24 37 8 21 22 -11 22 -10 4 4 -11 9 -26 16 -33 16 -7 0 -13 5 -13 10 0 6 14 10 31 10 23 0 41 -10 68 -37z m-92 -5 c29 -32 43 -62 43 -93 0 -25 0 -25 -30 -10 -35 18 -56 48 -65 90 l-6 30 18 -22 c10 -12 26 -33 36 -45 10 -13 6 -2 -8 25 -28 50 -22 62 12 25z m-66 -41 c0 -18 3 -26 6 -19 4 10 8 9 18 -5 11 -15 11 -22 -1 -45 -8 -16 -18 -28 -23 -28 -12 0 -31 48 -31 80 0 62 29 79 31 17z m1725 18 c18 -14 17 -14 -13 -15 -17 0 -34 -4 -37 -9 -4 -5 4 -7 16 -4 l23 6 -23 -25 c-21 -23 -27 -25 -53 -15 -38 15 -34 37 11 59 43 22 51 22 76 3z m-1513 -45 c14 -11 30 -33 35 -50 11 -29 10 -30 -21 -30 -23 1 -41 10 -67 37 -36 36 -34 38 25 19 11 -3 3 2 -19 13 -24 12 -33 21 -25 24 27 10 47 7 72 -13z m1537 15 c0 -2 -14 -21 -32 -42 l-32 -38 42 40 c44 41 51 41 28 -3 -19 -36 -45 -59 -78 -67 -32 -8 -33 -6 -14 39 17 40 86 98 86 71z m40 -93 c-5 -21 -18 -46 -29 -56 -17 -15 -19 -15 -25 -1 -11 28 -7 62 9 75 12 10 15 10 16 -1 0 -8 5 2 11 21 8 29 11 32 19 17 6 -11 6 -30 -1 -55z m-153 51 c14 -6 10 -10 -22 -20 l-40 -13 39 4 c43 6 44 6 -6 -27 -24 -17 -44 -23 -62 -20 -32 7 -33 14 0 52 26 31 54 38 91 24z m-1568 -48 l2 30 18 -35 c17 -31 17 -38 5 -62 -8 -16 -17 -28 -19 -28 -3 0 -14 15 -25 33 -23 37 -26 77 -7 96 10 10 13 5 18 -26 6 -35 6 -35 8 -8z m95 14 c29 -35 35 -79 10 -79 -18 0 -84 62 -84 79 0 16 36 -4 49 -27 6 -9 10 -12 10 -7 0 6 -6 19 -14 29 -34 45 -8 49 29 5z m131 -71 c-41 -9 -98 17 -73 33 7 5 21 9 31 9 9 0 17 5 17 12 0 6 14 -1 31 -18 l30 -29 -36 -7z m1345 37 c0 -9 -7 -18 -15 -21 -8 -4 -15 -11 -15 -17 0 -5 8 -3 18 6 10 9 26 16 37 15 11 0 27 1 35 3 37 10 12 -89 -29 -110 -16 -9 -20 -6 -25 21 -4 21 -1 37 9 48 25 28 17 31 -11 4 -19 -20 -33 -25 -58 -22 -21 2 -38 -2 -51 -14 -10 -10 -13 -18 -7 -18 6 0 14 5 17 10 9 15 25 12 25 -5 0 -28 -93 -60 -102 -36 -1 5 -14 1 -27 -10 l-23 -19 33 6 34 5 -24 -20 c-24 -22 -91 -29 -91 -10 0 18 57 69 78 69 11 0 34 14 50 30 17 17 40 30 51 30 12 0 21 5 21 10 0 13 49 60 61 60 5 0 9 -7 9 -15z m-130 -5 c0 -5 10 -11 23 -11 18 -1 16 -3 -8 -9 l-30 -8 30 -1 30 -2 -25 -13 c-21 -12 -29 -12 -53 1 -28 14 -28 15 -11 34 18 20 44 26 44 9z m-1275 -36 c22 -14 51 -72 41 -82 -11 -10 -59 10 -84 35 -31 31 -13 46 20 17 l22 -19 -17 25 c-28 41 -22 50 18 24z m-94 -26 c1 -25 3 -28 6 -10 4 22 5 23 18 5 16 -20 19 -61 6 -81 -12 -20 -61 42 -61 77 0 50 29 58 31 9z m241 -6 l31 -29 -32 -11 c-27 -9 -37 -8 -63 8 l-31 18 29 5 c25 3 24 4 -8 6 -21 0 -38 5 -38 9 0 34 71 29 112 -6z m1089 18 c27 -15 23 -30 -8 -31 -24 0 -25 -1 -8 -8 16 -7 14 -9 -17 -15 -24 -4 -44 -2 -58 6 -27 17 -25 24 8 42 32 18 56 20 83 6z m159 -55 c0 -24 -53 -95 -71 -95 -5 0 -9 15 -9 34 0 26 7 41 31 60 38 32 49 33 49 1z m-267 4 c29 -16 28 -14 21 -33 -8 -21 -71 -21 -99 0 -20 15 -20 15 -1 30 24 17 50 18 79 3z m-1042 -9 c16 -9 49 -58 49 -75 0 -3 -13 -5 -29 -5 -28 0 -81 33 -81 51 0 15 22 10 44 -8 21 -18 21 -18 4 3 -17 20 -24 44 -12 44 3 0 14 -5 25 -10z m-90 -39 c0 -21 2 -22 8 -8 6 18 7 18 24 -1 12 -13 15 -28 11 -50 -8 -40 -16 -40 -48 -1 -30 35 -38 103 -11 93 8 -4 15 -18 16 -33z m251 12 c19 -17 19 -18 -16 -30 -26 -9 -44 -9 -66 -1 -37 13 -38 25 -2 31 24 4 23 4 -8 6 -30 2 -32 4 -15 11 28 13 84 4 107 -17z m1045 -55 c-12 -29 -53 -68 -72 -68 -3 0 -5 14 -5 31 0 21 9 40 26 56 l25 23 -6 -22 c-4 -18 -2 -17 11 6 23 40 40 20 21 -26z m-163 18 c-3 -7 -15 -18 -27 -24 -18 -9 -16 -10 14 -5 25 4 39 1 44 -8 5 -8 5 -11 0 -7 -4 4 -20 1 -36 -7 -31 -17 -58 -19 -77 -7 -19 13 -3 42 32 58 40 17 57 17 50 0z m-919 -33 c33 -34 32 -53 -2 -53 -31 0 -93 34 -93 50 0 13 5 13 43 -5 30 -15 31 -15 10 1 -13 9 -23 22 -23 29 0 19 35 7 65 -22z m-120 -10 c9 -16 13 -19 10 -8 -5 17 -3 17 19 -4 28 -26 36 -81 13 -81 -19 0 -65 51 -67 75 -5 52 2 57 25 18z m1105 -7 c0 -26 -40 -71 -71 -79 -18 -5 -20 -2 -13 26 7 35 35 62 45 45 4 -6 10 -1 14 11 9 28 25 27 25 -3z"/>
 <path d="M2243 1122 c-55 -36 -68 -52 -18 -22 59 35 81 50 70 49 -6 0 -29 -12 -52 -27z"/>
 <path d="M2578 1043 c6 -2 18 -2 25 0 6 3 1 5 -13 5 -14 0 -19 -2 -12 -5z"/>
 <path d="M2528 1033 c6 -2 18 -2 25 0 6 3 1 5 -13 5 -14 0 -19 -2 -12 -5z"/>
 <path d="M2430 1015 c-25 -7 -38 -13 -30 -14 8 0 38 6 65 13 28 8 41 14 30 14 -11 0 -40 -6 -65 -13z"/>
 <path d="M2358 993 c7 -3 16 -2 19 1 4 3 -2 6 -13 5 -11 0 -14 -3 -6 -6z"/>
 <path d="M2668 953 c18 -2 45 -2 60 0 15 2 0 4 -33 4 -33 0 -45 -2 -27 -4z"/>
 <path d="M2553 943 c15 -2 37 -2 50 0 12 2 0 4 -28 4 -27 0 -38 -2 -22 -4z"/>
 <path d="M2448 933 c12 -2 32 -2 45 0 12 2 2 4 -23 4 -25 0 -35 -2 -22 -4z"/>
 <path d="M2353 923 c15 -2 37 -2 50 0 12 2 0 4 -28 4 -27 0 -38 -2 -22 -4z"/>
 <path d="M2718 863 c17 -2 47 -2 65 0 17 2 3 4 -33 4 -36 0 -50 -2 -32 -4z"/>
 <path d="M2593 853 c15 -2 39 -2 55 0 15 2 2 4 -28 4 -30 0 -43 -2 -27 -4z"/>
 <path d="M2483 843 c15 -2 39 -2 55 0 15 2 2 4 -28 4 -30 0 -43 -2 -27 -4z"/>
 <path d="M400 1030 c14 -4 34 -8 45 -8 16 0 15 2 -5 8 -14 4 -34 8 -45 8 -16 0 -15 -2 5 -8z"/>
 <path d="M540 1000 c41 -11 82 -19 90 -19 8 1 -16 9 -55 20 -38 10 -79 18 -90 18 -11 0 14 -9 55 -19z"/>
 <path d="M665 972 c31 -14 83 -24 65 -13 -8 5 -31 11 -50 15 -24 4 -28 3 -15 -2z"/>
 <path d="M373 933 c15 -2 37 -2 50 0 12 2 0 4 -28 4 -27 0 -38 -2 -22 -4z"/>
 <path d="M478 923 c12 -2 32 -2 45 0 12 2 2 4 -23 4 -25 0 -35 -2 -22 -4z"/>
 <path d="M568 913 c12 -2 32 -2 45 0 12 2 2 4 -23 4 -25 0 -35 -2 -22 -4z"/>
 <path d="M178 853 c17 -2 47 -2 65 0 17 2 3 4 -33 4 -36 0 -50 -2 -32 -4z"/>
 <path d="M318 843 c18 -2 45 -2 60 0 15 2 0 4 -33 4 -33 0 -45 -2 -27 -4z"/>
 <path d="M443 833 c15 -2 39 -2 55 0 15 2 2 4 -28 4 -30 0 -43 -2 -27 -4z"/>
 <path d="M553 823 c15 -2 37 -2 50 0 12 2 0 4 -28 4 -27 0 -38 -2 -22 -4z"/>
 <path d="M828 463 c6 -2 18 -2 25 0 6 3 1 5 -13 5 -14 0 -19 -2 -12 -5z"/>
 <path d="M2272 430 c0 -14 2 -19 5 -12 2 6 2 18 0 25 -3 6 -5 1 -5 -13z"/>
 <path d="M2181 354 c0 -11 3 -14 6 -6 3 7 2 16 -1 19 -3 4 -6 -2 -5 -13z"/>
 <path d="M1928 348 c6 -6 18 -8 28 -6 14 3 12 5 -9 10 -19 3 -25 2 -19 -4z"/>
 <path d="M1467 1983 c-4 -3 -55 -12 -115 -19 -133 -17 -209 -44 -270 -99 l-48 -43 -17 30 c-20 35 -33 30 -47 -20 -11 -41 -14 -171 -4 -197 6 -14 9 -14 28 3 11 11 35 28 51 38 22 13 17 6 -17 -27 -27 -25 -48 -54 -48 -64 0 -22 196 -222 207 -211 4 4 -36 49 -90 99 -53 51 -97 100 -97 109 0 15 105 118 120 118 13 0 40 -29 100 -108 34 -46 64 -81 67 -78 8 8 -122 180 -157 206 -35 27 -30 33 39 49 90 20 161 -29 202 -139 16 -45 25 -58 27 -43 5 35 -37 120 -79 157 -57 52 -125 59 -214 22 -30 -13 -36 -19 -27 -28 16 -16 15 -28 -1 -28 -8 0 -32 -13 -55 -29 l-40 -30 -7 40 c-7 42 1 126 14 148 6 9 14 3 28 -19 l20 -32 23 32 c51 71 149 113 311 131 138 16 141 15 409 -37 82 -16 158 -59 199 -115 l23 -31 24 23 23 22 11 -27 c5 -15 13 -52 17 -83 6 -53 5 -56 -13 -49 -10 4 -47 15 -80 23 l-62 15 21 21 c19 19 19 20 1 34 -45 33 -151 43 -207 19 -44 -18 -93 -69 -122 -127 -27 -52 -29 -59 -17 -59 4 0 18 23 31 50 48 101 138 152 230 130 75 -18 81 -26 46 -57 -18 -15 -25 -28 -18 -30 7 -3 10 -10 7 -18 -3 -7 5 -20 17 -29 l23 -16 -34 -36 c-50 -51 -68 -59 -90 -39 -21 19 -55 13 -64 -11 -7 -19 26 -82 40 -77 19 6 38 -25 25 -40 -13 -17 -2 -31 14 -17 7 6 27 4 55 -6 108 -37 199 57 161 167 -8 23 -8 36 0 45 7 9 7 19 -1 34 -11 20 -10 21 9 11 35 -19 41 -13 41 47 0 54 -26 152 -41 152 -4 0 -14 -11 -23 -25 l-16 -25 -36 40 c-57 63 -139 97 -279 116 -66 8 -138 22 -160 30 -45 15 -59 17 -68 7z m513 -359 c39 -45 50 -73 50 -130 0 -61 -40 -104 -97 -104 -44 0 -116 40 -151 85 -26 33 -27 44 -6 52 11 4 27 -6 48 -30 35 -40 92 -77 119 -77 26 0 67 45 67 73 0 36 -47 122 -75 137 -30 16 -32 30 -6 30 10 0 33 -16 51 -36z m50 -16 c0 -15 -19 -8 -29 11 -14 25 0 37 16 15 7 -10 13 -21 13 -26z m-61 -27 c15 -27 -9 -46 -34 -27 -16 12 -17 16 -6 30 18 21 28 20 40 -3z m-29 -49 c0 -5 -5 -13 -12 -20 -17 -17 -53 15 -37 34 8 10 16 11 30 3 10 -5 19 -13 19 -17z m50 -31 c0 -36 -23 -61 -55 -61 -41 0 -41 21 1 57 21 18 42 33 47 33 4 0 7 -13 7 -29z m-99 8 c20 -10 20 -11 3 -30 -16 -18 -18 -18 -36 -3 -14 13 -15 20 -7 31 14 16 15 16 40 2z"/>
 <path d="M1166 888 l-116 -113 0 -47 c0 -27 3 -48 6 -48 4 0 54 44 111 98 57 53 125 116 151 139 26 22 44 44 40 48 -4 4 -70 -51 -147 -124 -76 -72 -141 -131 -145 -131 -11 0 -7 30 8 58 8 15 64 73 125 130 61 56 105 102 97 102 -7 0 -66 -51 -130 -112z"/>
 <path d="M1700 995 c0 -3 16 -23 36 -45 46 -50 33 -52 -21 -2 l-40 37 38 -40 c20 -23 37 -46 37 -52 0 -30 -26 -21 -71 23 -27 26 -51 45 -55 42 -3 -4 13 -23 35 -43 23 -21 47 -49 54 -63 6 -15 22 -32 35 -38 35 -17 81 -65 76 -78 -5 -13 28 -48 42 -44 5 1 19 -4 32 -11 18 -9 27 -10 37 -1 27 22 10 65 -50 132 -32 36 -56 68 -54 71 6 8 -43 57 -51 52 -4 -3 -20 11 -34 30 -24 31 -46 45 -46 30z m100 -99 c0 -8 -11 -28 -24 -43 -20 -22 -27 -26 -37 -16 -10 10 -7 19 16 43 32 33 45 38 45 16z m120 -150 c0 -6 -27 16 -60 49 -33 33 -60 64 -60 69 0 6 27 -16 60 -49 33 -33 60 -64 60 -69z m-56 32 c36 -39 63 -75 60 -80 -4 -5 -16 0 -29 12 -16 15 -25 18 -30 10 -5 -9 -10 -9 -19 0 -8 8 -7 13 2 19 10 6 1 19 -33 49 -41 36 -52 62 -25 62 5 0 38 -32 74 -72z"/>
 <path d="M1420 915 c0 -24 -3 -25 -60 -25 l-60 0 0 -50 0 -50 60 0 c58 0 60 -1 60 -25 0 -14 -7 -28 -15 -32 -22 -8 -55 -76 -55 -113 0 -134 155 -199 243 -102 44 48 40 152 -7 201 -14 15 -26 37 -26 49 0 20 5 22 55 22 l55 0 0 50 0 50 -55 0 c-48 0 -55 3 -55 19 0 11 -4 23 -10 26 -6 4 -10 -6 -10 -24 0 -30 1 -30 58 -33 56 -3 57 -3 60 -35 l3 -33 -60 0 -61 0 0 -39 c0 -25 5 -41 15 -45 24 -9 55 -68 55 -106 0 -50 -31 -101 -75 -124 -35 -18 -41 -18 -79 -5 -55 19 -86 66 -86 130 0 42 5 55 35 88 24 27 35 48 35 70 l0 31 -60 0 -60 0 0 35 0 35 60 0 60 0 0 30 c0 17 -4 30 -10 30 -5 0 -10 -11 -10 -25z"/>
 <path d="M1463 690 c-57 -23 -58 -128 0 -149 44 -17 97 24 97 74 0 27 -22 63 -47 74 -13 6 -25 11 -26 10 -1 0 -12 -4 -24 -9z m59 -27 c38 -34 9 -121 -38 -111 -27 5 -57 52 -49 77 15 49 54 64 87 34z"/>
 <path d="M1363 430 c-35 -21 -57 -77 -44 -113 6 -17 2 -28 -20 -48 -24 -22 -29 -35 -29 -74 0 -38 5 -52 29 -76 20 -20 40 -29 60 -29 24 0 34 -6 41 -24 16 -44 50 -66 100 -66 50 0 84 22 100 66 7 18 17 24 41 24 80 0 121 119 62 178 -22 22 -26 34 -24 69 3 51 -10 78 -49 98 -37 19 -80 19 -108 -1 -20 -14 -24 -14 -44 0 -30 22 -76 20 -115 -4z m115 -16 c20 -14 24 -14 44 0 12 9 39 16 59 16 62 0 103 -65 80 -124 -5 -13 2 -27 26 -51 18 -18 33 -43 33 -54 0 -57 -62 -111 -109 -96 -17 5 -21 2 -21 -15 0 -33 -53 -80 -90 -80 -37 0 -90 47 -90 80 0 17 -4 20 -21 15 -47 -15 -109 39 -109 96 0 11 15 36 33 54 24 24 31 38 26 51 -14 35 -9 62 17 93 20 24 34 31 63 31 20 0 47 -7 59 -16z"/>
 <path d="M1390 380 c0 -6 9 -20 20 -32 24 -26 27 -53 4 -44 -8 3 -12 2 -9 -4 3 -5 3 -20 -1 -34 -4 -19 -14 -26 -37 -29 l-32 -4 33 -1 c35 -2 41 -15 15 -32 -16 -9 -15 -10 5 -5 16 5 22 2 22 -10 0 -9 -9 -19 -20 -22 -11 -3 -20 -9 -20 -14 0 -14 12 -11 33 8 18 17 20 17 43 -10 13 -16 24 -24 24 -20 0 4 14 8 30 8 17 0 30 -4 30 -8 0 -4 11 4 24 20 23 27 25 27 43 10 21 -19 33 -22 33 -8 0 5 -9 11 -20 14 -11 3 -20 13 -20 22 0 12 6 15 23 10 19 -5 20 -4 5 5 -27 17 -22 28 15 33 l32 4 -31 1 c-25 2 -33 7 -38 27 -4 14 -4 30 -1 35 3 6 -1 7 -9 4 -23 -9 -20 18 5 44 11 13 19 28 17 34 -2 6 -14 -6 -27 -28 -22 -37 -24 -38 -37 -19 -8 10 -14 15 -14 9 0 -5 -13 -9 -30 -9 -16 0 -30 4 -30 9 0 6 -6 1 -14 -9 -13 -19 -15 -18 -36 18 -23 38 -30 45 -30 27z m178 -86 c30 -34 29 -85 -2 -121 -52 -61 -156 -21 -156 60 0 87 101 126 158 61z"/>
 <path d="M1446 278 c-9 -12 -16 -32 -16 -43 0 -28 28 -65 48 -64 13 0 11 3 -5 9 -42 17 -42 93 0 110 17 7 18 9 5 9 -9 1 -24 -9 -32 -21z"/>
 <path d="M1527 290 c42 -17 42 -93 0 -110 -17 -7 -18 -9 -5 -9 20 -1 48 36 48 64 0 28 -28 65 -48 64 -13 0 -11 -3 5 -9z"/>
 <path d="M1445 381 c-3 -5 -1 -12 5 -16 5 -3 10 1 10 9 0 18 -6 21 -15 7z"/>
 <path d="M1540 374 c0 -8 5 -12 10 -9 6 4 8 11 5 16 -9 14 -15 11 -15 -7z"/>
 <path d="M1370 320 c0 -5 5 -10 10 -10 6 0 10 5 10 10 0 6 -4 10 -10 10 -5 0 -10 -4 -10 -10z"/>
 <path d="M1610 320 c0 -5 5 -10 10 -10 6 0 10 5 10 10 0 6 -4 10 -10 10 -5 0 -10 -4 -10 -10z"/>
 <path d="M1330 180 c0 -5 4 -10 9 -10 6 0 13 5 16 10 3 6 -1 10 -9 10 -9 0 -16 -4 -16 -10z"/>
 <path d="M1645 180 c3 -5 10 -10 16 -10 5 0 9 5 9 10 0 6 -7 10 -16 10 -8 0 -12 -4 -9 -10z"/>
 <path d="M1445 101 c-3 -5 -1 -12 5 -16 5 -3 10 1 10 9 0 18 -6 21 -15 7z"/>
 <path d="M1540 94 c0 -8 5 -12 10 -9 6 4 8 11 5 16 -9 14 -15 11 -15 -7z"/>
 <path d="M1490 65 c0 -8 5 -15 10 -15 6 0 10 7 10 15 0 8 -4 15 -10 15 -5 0 -10 -7 -10 -15z"/>
 </g>
<g id="layer7" fill="#eeeeee" stroke="none">
 <path d="M1478 1964 c-4 -3 -55 -12 -115 -19 -142 -18 -212 -45 -276 -106 l-51 -49 -22 27 -22 28 -7 -35 c-3 -19 -5 -61 -3 -92 l3 -57 55 35 c30 19 49 34 42 34 -31 0 -7 30 35 44 59 20 135 20 174 1 38 -20 83 -83 103 -143 l16 -47 88 0 89 0 18 45 c27 64 99 133 157 149 51 14 123 5 180 -25 l30 -16 -21 -22 -21 -22 58 -13 c31 -7 63 -15 70 -18 16 -6 16 55 1 108 l-12 38 -19 -24 -19 -24 -57 58 c-48 49 -69 62 -122 79 -36 11 -94 23 -130 27 -63 6 -169 28 -201 40 -8 3 -18 3 -21 -1z"/>
 <path d="M1067 1655 c-82 -63 -82 -64 24 -171 52 -52 97 -94 101 -94 3 0 10 9 13 21 4 12 22 38 40 58 l33 37 -69 92 c-38 51 -76 92 -83 92 -7 0 -34 -16 -59 -35z"/>
 <path d="M1920 1654 c0 -3 11 -15 25 -26 59 -47 83 -145 45 -186 -39 -41 -100 -23 -164 48 -31 34 -40 39 -52 29 -13 -10 -10 -18 23 -52 48 -50 114 -81 153 -72 42 9 80 58 80 103 0 45 -33 115 -67 142 -26 20 -43 26 -43 14z"/>
 <path d="M2002 1620 c14 -22 24 -19 15 5 -4 8 -11 15 -17 15 -6 0 -6 -7 2 -20z"/>
 <path d="M1937 1582 c-18 -20 -18 -20 3 -27 28 -9 35 0 24 26 -9 20 -10 20 -27 1z"/>
 <path d="M1894 1539 c-8 -14 14 -29 33 -22 18 7 17 20 -3 27 -21 8 -22 8 -30 -5z"/>
 <path d="M1851 1506 c-8 -10 -7 -17 4 -26 13 -11 19 -11 32 2 14 15 13 17 -5 27 -15 8 -23 7 -31 -3z"/>
 <path d="M1486 1428 c-9 -35 -8 -38 14 -38 11 0 20 3 20 8 0 19 -13 52 -20 52 -4 0 -10 -10 -14 -22z"/>
 <path d="M1790 1420 c6 -11 15 -18 21 -14 6 4 6 11 -2 20 -17 21 -31 17 -19 -6z"/>
 <path d="M1406 1405 c9 -39 16 -46 34 -35 13 8 10 14 -13 37 l-28 28 7 -30z"/>
 <path d="M1570 1404 c-21 -21 -22 -27 -10 -34 18 -11 25 -4 34 33 8 33 6 34 -24 1z"/>
 <path d="M1450 1352 c-50 -24 -70 -83 -46 -133 40 -84 152 -84 192 -1 23 48 6 105 -39 132 -40 24 -62 25 -107 2z"/>
 <path d="M1349 1336 c28 -30 37 -32 45 -10 8 21 9 20 -34 29 l-35 7 24 -26z"/>
 <path d="M1623 1353 c-25 -5 -27 -11 -13 -33 8 -13 14 -11 37 13 27 27 25 29 -24 20z"/>
 <path d="M1830 1276 c0 -47 17 -55 46 -20 29 36 26 48 -14 52 -30 3 -32 2 -32 -32z"/>
 <path d="M1111 1291 c-11 -7 -10 -15 9 -40 28 -40 44 -35 48 12 3 33 1 37 -20 37 -13 0 -29 -4 -37 -9z"/>
 <path d="M1928 1282 c-23 -10 -63 -62 -47 -62 7 0 20 -6 28 -14 14 -11 23 -8 70 25 l54 38 -27 11 c-31 11 -53 12 -78 2z"/>
 <path d="M1320 1271 c-27 -7 -21 -15 23 -25 23 -5 27 -3 27 14 0 21 -8 23 -50 11z"/>
 <path d="M1627 1260 c-5 -19 -2 -21 26 -15 40 9 59 25 30 25 -12 0 -28 3 -36 6 -9 3 -16 -3 -20 -16z"/>
 <path d="M982 1262 c-9 -6 3 -19 41 -44 52 -35 54 -35 77 -18 23 17 23 17 4 43 -16 22 -27 26 -64 27 -25 0 -51 -4 -58 -8z"/>
 <path d="M2004 1228 l-52 -31 27 -23 26 -22 48 41 c45 38 48 42 31 54 -24 17 -21 18 -80 -19z"/>
 <path d="M905 1229 c-4 -6 -5 -11 -4 -13 2 -1 25 -19 51 -40 l47 -37 20 20 c12 12 21 23 21 25 0 2 -18 15 -40 30 -41 27 -84 34 -95 15z"/>
 <path d="M2134 1223 c-11 -2 -41 -21 -66 -42 l-45 -37 28 -16 c27 -16 29 -15 81 23 70 52 71 86 2 72z"/>
 <path d="M810 1196 c0 -7 24 -32 54 -54 49 -37 56 -40 80 -29 33 15 29 24 -23 65 -45 34 -111 45 -111 18z"/>
 <path d="M1349 1184 l-24 -26 30 8 c41 9 45 12 38 29 -7 21 -16 19 -44 -11z"/>
 <path d="M1607 1195 c-7 -17 -3 -20 38 -29 l30 -8 -24 26 c-28 30 -37 32 -44 11z"/>
 <path d="M1823 1195 c-3 -9 -3 -18 -1 -21 3 -3 8 4 11 16 6 23 -1 27 -10 5z"/>
 <path d="M1171 1170 c6 -19 16 -39 21 -45 5 -5 3 6 -3 25 -6 19 -16 39 -21 45 -5 5 -3 -6 3 -25z"/>
 <path d="M1844 1165 c-26 -62 7 -77 44 -19 25 38 22 54 -9 54 -13 0 -25 -12 -35 -35z"/>
 <path d="M1102 1181 c-10 -6 -8 -16 9 -47 13 -21 24 -41 26 -43 2 -3 10 2 19 11 14 14 14 19 0 52 -15 36 -29 43 -54 27z"/>
 <path d="M2151 1144 c-41 -31 -60 -52 -57 -61 4 -8 6 -17 6 -19 0 -13 43 0 84 26 27 17 71 43 98 57 57 30 50 43 -23 43 -38 0 -55 -7 -108 -46z"/>
 <path d="M684 1165 c-14 -11 -15 -14 -4 -15 13 0 53 -22 167 -91 28 -18 32 -18 47 -4 9 9 16 20 16 24 0 4 -29 28 -64 54 -69 51 -123 62 -162 32z"/>
 <path d="M1904 1134 c-25 -32 -26 -36 -11 -51 14 -15 19 -13 52 22 20 21 33 45 31 52 -10 24 -45 13 -72 -23z"/>
 <path d="M1029 1144 c-16 -15 -14 -19 21 -50 24 -22 44 -32 54 -28 21 8 20 15 -7 55 -26 39 -46 46 -68 23z"/>
 <path d="M1410 1134 c-16 -42 -11 -49 15 -24 29 27 31 36 10 44 -11 4 -19 -3 -25 -20z"/>
 <path d="M1560 1150 c-13 -8 -10 -14 14 -37 l28 -28 -7 30 c-8 38 -17 46 -35 35z"/>
 <path d="M2296 1135 c-16 -9 -56 -32 -88 -51 -53 -32 -58 -38 -45 -51 13 -13 32 -8 161 38 80 29 146 56 146 60 0 22 -133 25 -174 4z"/>
 <path d="M547 1127 c-27 -11 -21 -14 123 -66 132 -47 153 -52 166 -39 13 12 3 21 -73 66 -75 45 -94 52 -137 52 -28 -1 -64 -6 -79 -13z"/>
 <path d="M1485 1108 c8 -35 12 -44 19 -37 2 2 7 19 11 37 6 28 4 32 -15 32 -19 0 -21 -4 -15 -32z"/>
 <path d="M1955 1090 c-27 -29 -28 -30 -10 -49 15 -18 20 -19 44 -7 14 8 41 17 59 21 37 8 40 17 12 45 -29 29 -71 26 -105 -10z"/>
 <path d="M2465 1104 c-196 -70 -265 -97 -265 -103 0 -5 11 -13 25 -19 19 -9 36 -8 77 5 29 8 117 30 196 47 79 18 144 36 145 41 3 16 -65 45 -103 44 -19 0 -53 -7 -75 -15z"/>
 <path d="M394 1091 c-23 -10 -44 -23 -47 -28 -3 -5 27 -15 66 -22 40 -7 134 -29 209 -47 107 -27 142 -32 158 -24 11 6 20 14 20 19 0 10 -314 121 -343 121 -12 0 -41 -9 -63 -19z"/>
 <path d="M941 1086 c-25 -27 -21 -46 10 -46 11 0 35 -6 54 -14 30 -13 35 -13 50 4 16 18 16 21 -13 50 -37 36 -71 38 -101 6z"/>
 <path d="M1778 1082 l-17 -28 56 -48 c30 -27 80 -86 110 -132 30 -45 62 -85 70 -88 8 -3 91 -9 185 -13 l171 -6 -7 29 c-16 62 -53 81 -198 98 -97 12 -115 17 -131 38 -58 75 -181 178 -212 178 -6 0 -18 -13 -27 -28z"/>
 <path d="M1155 1078 c-22 -11 -77 -58 -122 -104 l-83 -82 -77 -7 c-121 -10 -180 -30 -203 -68 -35 -57 -35 -57 139 -57 88 0 171 4 184 9 15 6 45 40 71 80 54 85 119 157 158 177 l29 15 -21 29 c-25 35 -24 35 -75 8z"/>
 <path d="M2495 1015 c-227 -50 -265 -64 -219 -82 14 -5 279 16 454 36 l54 6 -37 38 c-47 46 -54 46 -252 2z"/>
 <path d="M263 1007 c-21 -20 -35 -38 -32 -42 4 -3 76 -13 160 -20 85 -8 192 -19 239 -25 70 -8 87 -7 99 5 13 12 11 16 -15 25 -33 13 -305 76 -369 86 -39 5 -46 3 -82 -29z"/>
 <path d="M2023 1029 c-41 -12 -47 -22 -24 -43 16 -15 25 -16 58 -7 21 6 58 11 83 11 l45 1 -28 24 c-30 27 -74 31 -134 14z"/>
 <path d="M845 1006 l-30 -25 35 -1 c20 0 58 -6 86 -13 48 -13 51 -12 68 10 17 23 16 23 -11 34 -15 6 -48 13 -73 15 -38 4 -50 1 -75 -20z"/>
 <path d="M1186 878 c-85 -83 -116 -119 -116 -137 0 -22 3 -21 48 20 182 166 221 206 210 217 -7 7 -15 12 -18 12 -4 0 -59 -51 -124 -112z"/>
 <path d="M1710 965 c13 -14 26 -25 28 -25 3 0 -5 11 -18 25 -13 14 -26 25 -28 25 -3 0 5 -11 18 -25z"/>
 <path d="M2106 970 c-71 -13 -80 -18 -67 -34 7 -8 43 -16 89 -20 42 -4 94 -11 115 -15 20 -5 37 -6 37 -2 0 4 -15 21 -33 39 -37 36 -71 44 -141 32z"/>
 <path d="M1647 963 c-3 -5 15 -25 39 -46 57 -50 79 -38 28 14 -37 38 -58 47 -67 32z"/>
 <path d="M751 925 c-35 -40 -38 -50 -15 -41 8 3 57 11 107 16 51 6 100 13 110 16 51 16 -22 44 -114 44 -53 0 -59 -3 -88 -35z"/>
 <path d="M2505 929 c-93 -10 -178 -18 -187 -19 -24 0 -22 -10 7 -43 l25 -28 163 15 c89 8 210 18 270 22 59 4 107 10 107 15 0 5 -17 20 -37 34 -46 31 -99 32 -348 4z"/>
 <path d="M165 922 c-68 -42 -63 -49 32 -56 49 -4 171 -14 272 -23 l185 -16 23 27 c13 15 23 31 23 35 0 7 -420 52 -480 51 -14 0 -38 -8 -55 -18z"/>
 <path d="M1440 900 l0 -30 -60 0 -60 0 0 -30 0 -30 60 0 60 0 0 -40 c0 -28 -5 -42 -19 -49 -23 -13 -51 -70 -51 -106 0 -101 115 -162 189 -99 57 48 61 143 6 194 -18 17 -25 34 -25 62 l0 38 55 0 c54 0 55 0 55 30 0 30 -1 30 -55 30 -54 0 -55 0 -55 30 0 29 -1 30 -50 30 -49 0 -50 -1 -50 -30z m99 -226 c43 -54 10 -144 -52 -144 -28 0 -63 35 -72 71 -7 29 15 83 37 92 33 14 67 6 87 -19z"/>
 <path d="M1761 881 c-30 -42 -16 -59 16 -20 17 20 23 33 16 40 -7 7 -18 1 -32 -20z"/>
 <path d="M1820 845 c13 -14 26 -25 28 -25 3 0 -5 11 -18 25 -13 14 -26 25 -28 25 -3 0 5 -11 18 -25z"/>
 <path d="M2585 844 c-182 -16 -225 -22 -225 -32 1 -27 27 -30 317 -34 l302 -5 -19 26 c-48 64 -42 61 -131 60 -46 -1 -156 -8 -244 -15z"/>
 <path d="M62 814 c-18 -21 -32 -43 -32 -48 0 -5 72 -7 182 -3 99 4 235 7 300 7 98 0 120 3 125 15 3 9 3 18 1 20 -6 6 -280 32 -429 41 l-115 7 -32 -39z"/>
 <path d="M1784 839 c-3 -6 12 -30 34 -52 22 -23 38 -48 35 -55 -3 -7 1 -10 10 -7 7 3 20 -1 27 -10 13 -16 34 -21 28 -6 -9 24 -128 139 -134 130z"/>
 <path d="M1895 760 c10 -11 20 -20 23 -20 3 0 -3 9 -13 20 -10 11 -20 20 -23 20 -3 0 3 -9 13 -20z"/>
 </g>

</svg>