<!DOCTYPE svg PUBLIC "-//W3C//DTD SVG 20010904//EN" "http://www.w3.org/TR/2001/REC-SVG-20010904/DTD/svg10.dtd">
<svg version="1.0" xmlns="http://www.w3.org/2000/svg" width="456px" height="154px" viewBox="0 0 4560 1540" preserveAspectRatio="xMidYMid meet">
<g id="layer1" fill="#e46b2a" stroke="none">
 <path d="M966 1439 c-54 -119 -77 -216 -83 -354 -6 -127 9 -238 45 -346 l19 -54 124 -6 c68 -3 155 -14 192 -23 38 -9 73 -16 78 -16 6 0 -4 20 -21 45 -54 79 -91 171 -107 267 -14 81 -14 101 -1 183 8 50 27 119 43 152 15 34 24 66 21 72 -5 8 -176 109 -252 149 -20 11 -24 6 -58 -69z"/>
 <path d="M817 1316 c-170 -121 -428 -142 -610 -49 -40 20 -51 22 -58 11 -36 -55 -149 -257 -149 -265 0 -15 147 -80 235 -104 154 -41 415 -28 556 28 l36 14 6 127 c3 74 13 157 24 200 11 39 17 72 14 72 -3 0 -27 -15 -54 -34z"/>
 <path d="M160 877 c0 -3 17 -31 39 -63 83 -127 120 -280 100 -421 -11 -77 -40 -169 -67 -211 -8 -12 -13 -24 -11 -26 17 -13 272 -156 279 -156 10 0 55 93 81 168 64 187 63 431 -4 617 l-14 40 -114 7 c-104 6 -227 26 -271 43 -10 4 -18 5 -18 2z"/>
 <path d="M840 611 c-47 -10 -101 -25 -121 -34 l-36 -15 -6 -123 c-3 -73 -14 -155 -25 -199 -11 -41 -19 -76 -17 -78 2 -2 25 13 53 32 70 51 148 83 248 103 107 21 228 9 326 -32 34 -15 70 -29 79 -32 12 -3 35 29 93 127 42 72 76 136 76 141 0 14 -133 74 -221 100 -107 31 -331 36 -449 10z"/>
 </g>
<g id="layer2" fill="#020604" stroke="none">
 <path d="M1921 1258 c0 -7 21 -132 48 -278 l47 -265 -109 -3 -109 -3 5 -27 c3 -15 11 -62 17 -104 l13 -78 419 0 420 0 -5 22 c-3 13 -22 121 -43 240 -41 236 -40 262 6 285 14 7 57 13 95 13 76 0 121 -19 148 -62 8 -13 31 -117 51 -233 20 -116 39 -222 42 -237 l6 -28 509 0 c467 0 509 1 509 17 0 14 -111 652 -126 726 l-6 27 -104 0 c-103 0 -104 0 -99 -22 2 -13 23 -129 45 -258 22 -129 43 -245 45 -257 5 -23 4 -23 -94 -23 l-99 0 -6 28 c-3 15 -24 133 -46 262 -23 129 -43 243 -46 253 -5 15 -19 17 -105 17 -95 0 -99 -1 -99 -22 0 -12 20 -135 45 -275 25 -139 45 -255 45 -258 0 -3 -44 -5 -98 -5 l-99 0 -25 145 c-15 84 -37 167 -51 199 -34 73 -103 140 -185 179 -64 30 -73 32 -187 32 -139 0 -179 -11 -238 -64 -80 -72 -93 -154 -57 -355 11 -60 20 -115 20 -123 0 -10 -23 -13 -98 -13 l-97 0 -18 103 c-10 56 -32 182 -49 280 l-31 177 -104 0 c-76 0 -103 -3 -102 -12z"/>
 <path d="M4153 1148 c-134 -135 -163 -181 -163 -263 0 -80 28 -125 162 -261 l121 -124 144 0 c79 0 143 3 143 8 0 4 -81 88 -180 187 -99 99 -180 184 -180 190 0 6 81 91 180 190 99 99 180 183 180 187 0 5 -64 8 -143 8 l-142 0 -122 -122z"/>
 </g>

</svg>